<svg width="17" height="24" viewBox="0 0 17 24" fill="none" xmlns="http://www.w3.org/2000/svg">
<path d="M13.9433 15.6581L10.7229 14.7996V14.4683C11.5773 13.9725 12.2604 13.2146 12.6584 12.3025V12.3872C13.7257 12.3872 14.5939 11.519 14.5939 10.4517V6.19358C14.5939 2.77866 11.8152 0 8.40032 0C4.9854 0 2.20673 2.77866 2.20673 6.19358V10.4517C2.20673 11.519 3.07494 12.3872 4.14223 12.3872V12.3028C4.54021 13.2147 5.22336 13.9727 6.07772 14.4687V14.8L2.85737 15.6585C1.33455 16.0646 0.27124 17.4488 0.27124 19.0243V24H16.5294V19.0243C16.5294 17.4488 15.4661 16.0646 13.9433 15.6581ZM15.7552 19.0243V20.9033H13.4326V20.1395C13.4326 19.4493 13.6346 18.7809 14.0179 18.2071L14.828 16.9921C15.4002 17.4949 15.7551 18.2261 15.7551 19.0243H15.7552ZM4.14223 20.4036L9.15947 23.2259H4.14223V20.4036ZM4.03923 19.4579C3.89372 18.7952 3.5944 18.1705 3.15581 17.6432L3.12401 17.6049L12.6586 22.9681V23.2259H10.7378L4.03923 19.4579ZM12.8992 11.5872C12.9913 11.2233 13.0455 10.844 13.0455 10.4519V9.36174C13.495 9.52194 13.8197 9.94774 13.8197 10.4519C13.8197 11.0097 13.4245 11.4761 12.8992 11.5872ZM8.4004 0.774561C11.3888 0.774561 13.8198 3.2055 13.8198 6.19394V8.91368C13.5937 8.74259 13.3331 8.61437 13.0456 8.55596V6.58105H12.6585C11.81 6.58105 10.9998 6.1758 10.4904 5.49717L9.94879 4.77447L9.63912 5.18714C8.9845 6.06 7.94243 6.58105 6.852 6.58105H3.75521V8.55561C3.46765 8.61436 3.20704 8.74225 2.98102 8.91333V6.19395C2.98102 3.2055 5.41195 0.774561 8.4004 0.774561ZM2.98102 10.452C2.98102 9.9481 3.30573 9.52229 3.75521 9.36192V10.452C3.75521 10.8441 3.80948 11.2235 3.90159 11.5874C3.37624 11.4763 2.98102 11.0099 2.98102 10.452ZM4.52941 10.452V7.35524H6.852C8.0152 7.35524 9.1331 6.87068 9.93013 6.0384C10.5064 6.76353 11.3565 7.22995 12.2714 7.33361V10.452C12.2714 12.5864 10.5348 14.323 8.4004 14.323C6.266 14.323 4.52941 12.5864 4.52941 10.452V10.452ZM8.4004 15.0972C8.94389 15.0972 9.46371 14.9985 9.94879 14.8262V15.0972C9.94879 15.9511 9.25427 16.6456 8.4004 16.6456C7.54653 16.6456 6.852 15.9511 6.852 15.0972V14.8262C7.33709 14.9985 7.85691 15.0972 8.4004 15.0972ZM3.05667 16.4065L6.13032 15.587C6.35601 16.6329 7.28728 17.4199 8.40022 17.4199C9.51316 17.4199 10.4444 16.6329 10.6698 15.587L13.7434 16.4065C13.896 16.4471 14.0419 16.5013 14.1817 16.566L13.3734 17.7784C12.9056 18.4793 12.6583 19.2965 12.6583 20.1399V22.0804L2.75965 16.5128C2.85711 16.4741 2.95354 16.4338 3.05654 16.4063L3.05667 16.4065ZM1.77145 17.1926L2.56034 18.1391C3.08135 18.7647 3.36789 19.5567 3.36789 20.3696V20.9037H1.0453V19.0247C1.0453 18.3261 1.32059 17.6815 1.77145 17.1926ZM1.0453 21.6781H3.36789V23.2265H1.0453V21.6781ZM13.4325 23.2265V21.6781H15.7551V23.2265H13.4325Z" fill="#29384E"/>
<path d="M10.7231 11.2258H9.94887C9.94887 12.0796 9.25435 12.7742 8.40047 12.7742C7.5466 12.7742 6.85208 12.0796 6.85208 11.2258H6.07788C6.07788 12.5066 7.1196 13.5484 8.40047 13.5484C9.68135 13.5484 10.7231 12.5066 10.7231 11.2258Z" fill="#29384E"/>
<path d="M6.46487 8.51601C6.46487 8.72977 6.29154 8.9031 6.07777 8.9031C5.86401 8.9031 5.69067 8.72977 5.69067 8.51601C5.69067 8.30224 5.86401 8.12891 6.07777 8.12891C6.29154 8.12891 6.46487 8.30224 6.46487 8.51601Z" fill="#29384E"/>
<path d="M11.1101 8.51601C11.1101 8.72977 10.9368 8.9031 10.723 8.9031C10.5093 8.9031 10.3359 8.72977 10.3359 8.51601C10.3359 8.30224 10.5093 8.12891 10.723 8.12891C10.9368 8.12891 11.1101 8.30224 11.1101 8.51601Z" fill="#29384E"/>
<path d="M10.3359 18.1936H11.8843V18.9678H10.3359V18.1936Z" fill="#29384E"/>
</svg>
