<svg width="19" height="24" viewBox="0 0 19 24" fill="none" xmlns="http://www.w3.org/2000/svg">
<path d="M16.6277 15.379L12.3356 14.0382V12.9596C12.998 12.4118 13.4884 11.6663 13.7248 10.8159C14.6838 10.7013 15.4324 9.89224 15.4324 8.90326V5.03228C15.4324 2.2576 13.1748 0 10.4001 0H8.85172C6.07704 0 3.81944 2.2576 3.81944 5.03228V8.90326C3.81944 9.89224 4.56807 10.7014 5.52701 10.8156C5.76359 11.666 6.25405 12.4117 6.91623 12.9593V14.0379L2.62408 15.3792C1.48681 15.7343 0.722656 16.7741 0.722656 17.9657V24H18.5292V17.9657C18.5292 16.7741 17.765 15.7343 16.6277 15.379ZM17.755 17.9657V20.1291H15.4324V17.8065H14.6582V23.2259H11.1743V20.5162C11.1743 19.8991 10.8088 19.3696 10.2852 19.1207L13.2696 15.1411L16.3962 16.1181C17.2092 16.372 17.755 17.1144 17.755 17.9657ZM9.62591 21.2904C9.1989 21.2904 8.85172 20.9432 8.85172 20.5162C8.85172 20.0892 9.1989 19.742 9.62591 19.742C10.0529 19.742 10.4001 20.0892 10.4001 20.5162V23.2259H10.013V21.2904H9.62591ZM5.36783 6.87619V7.00701C5.08028 7.06576 4.81966 7.19365 4.59364 7.36473V6.12446C4.78995 6.39699 5.05227 6.64893 5.36783 6.87619ZM5.07406 5.41955H14.1782C13.7245 6.41822 11.6261 7.35504 9.62633 7.35504C7.62638 7.35504 5.5276 6.41822 5.07406 5.41955ZM6.17297 4.64535C6.36185 3.33422 7.48946 2.32277 8.85174 2.32277H10.4001C11.7624 2.32277 12.89 3.33422 13.0789 4.64535H6.17297ZM13.884 6.87619C14.1995 6.64894 14.4618 6.39699 14.6582 6.12482V7.36508C14.4321 7.194 14.1715 7.06578 13.884 7.00737V6.87619ZM13.8677 9.99855C13.8758 9.8921 13.884 9.78599 13.884 9.67764V7.81333C14.3334 7.97352 14.6582 8.39933 14.6582 8.90344C14.6582 9.41321 14.3257 9.84282 13.8677 9.99855ZM8.85182 0.77455H10.4002C12.6176 0.77455 14.4423 2.47849 14.6386 4.64553H13.8613C13.6678 2.90638 12.1902 1.54875 10.4003 1.54875H8.85186C7.06187 1.54875 5.58435 2.90638 5.3908 4.64553H4.61351C4.80982 2.47849 6.63456 0.77455 8.8519 0.77455H8.85182ZM4.59374 8.90361C4.59374 8.39968 4.91845 7.97387 5.36793 7.8135V9.67781C5.36793 9.78616 5.37605 9.89227 5.38418 9.99872C4.92621 9.84302 4.59374 9.41343 4.59374 8.90361ZM6.14213 9.67781V7.33619C7.15133 7.83252 8.42065 8.12941 9.62601 8.12941C10.8314 8.12941 12.1007 7.83253 13.1099 7.33619V9.67781C13.1099 11.5986 11.5468 13.1617 9.62601 13.1617C7.70521 13.1617 6.14213 11.5986 6.14213 9.67781ZM9.62601 13.9359C10.3231 13.9359 10.9801 13.7639 11.5615 13.466V14.1931C11.3657 14.431 10.7208 15.0972 9.62601 15.0972C8.529 15.0972 7.88752 14.4338 7.69052 14.1929V13.4659C8.27188 13.764 8.92888 13.9359 9.62601 13.9359V13.9359ZM7.16761 14.7709C7.51098 15.154 8.32647 15.8714 9.62601 15.8714C10.9256 15.8714 11.7411 15.154 12.0844 14.7709L12.4862 14.8964L9.62601 18.71L6.76582 14.8964L7.16761 14.7709ZM2.85525 16.1187L5.98176 15.1416L8.96622 19.1213C8.44313 19.37 8.07762 19.8995 8.07762 20.5166C8.07762 21.2365 8.57187 21.8436 9.23891 22.0162V23.2262H4.59374V17.8069H3.81954V20.1295H1.49695V17.966C1.49695 17.1148 2.04269 16.3724 2.85525 16.1187ZM1.49695 20.9037H3.81954V23.2262H1.49695V20.9037ZM15.4325 23.2262V20.9037H17.7551V23.2262H15.4325Z" fill="#29384E"/>
<path d="M11.9485 8.5161C11.9485 8.72986 11.7752 8.90319 11.5614 8.90319C11.3476 8.90319 11.1743 8.72986 11.1743 8.5161C11.1743 8.30233 11.3476 8.129 11.5614 8.129C11.7752 8.129 11.9485 8.30233 11.9485 8.5161Z" fill="#29384E"/>
<path d="M8.07766 8.5161C8.07766 8.72986 7.90433 8.90319 7.69056 8.90319C7.4768 8.90319 7.30347 8.72986 7.30347 8.5161C7.30347 8.30233 7.4768 8.129 7.69056 8.129C7.90433 8.129 8.07766 8.30233 8.07766 8.5161Z" fill="#29384E"/>
<path d="M9.62603 12C10.4799 12 11.1744 11.3055 11.1744 10.4516H10.4002C10.4002 10.8786 10.053 11.2258 9.62603 11.2258C9.19901 11.2258 8.85183 10.8786 8.85183 10.4516H8.07764C8.07764 11.3055 8.77216 12 9.62603 12Z" fill="#29384E"/>
<path d="M9.23877 3.09671H10.013V3.87091H9.23877V3.09671Z" fill="#29384E"/>
</svg>
