<svg width="25" height="24" viewBox="0 0 25 24" fill="none" xmlns="http://www.w3.org/2000/svg">
<path d="M14.4044 22H10.6544C10.4044 22 10.1877 21.9167 10.0044 21.75C9.82106 21.5833 9.71272 21.375 9.67939 21.125L9.37939 18.8C9.16272 18.7167 8.95839 18.6167 8.76639 18.5C8.57439 18.3833 8.38706 18.2583 8.20439 18.125L6.02939 19.025C5.79606 19.1083 5.56272 19.1167 5.32939 19.05C5.09606 18.9833 4.91272 18.8417 4.77939 18.625L2.92939 15.4C2.79606 15.1833 2.75439 14.95 2.80439 14.7C2.85439 14.45 2.97939 14.25 3.17939 14.1L5.05439 12.675C5.03772 12.5583 5.02939 12.4457 5.02939 12.337V11.663C5.02939 11.5543 5.03772 11.4417 5.05439 11.325L3.17939 9.9C2.97939 9.75 2.85439 9.55 2.80439 9.3C2.75439 9.05 2.79606 8.81667 2.92939 8.6L4.77939 5.375C4.89606 5.14167 5.07506 4.99567 5.31639 4.937C5.55772 4.87833 5.79539 4.891 6.02939 4.975L8.20439 5.875C8.38772 5.74167 8.57939 5.61667 8.77939 5.5C8.97939 5.38333 9.17939 5.28333 9.37939 5.2L9.67939 2.875C9.71272 2.625 9.82106 2.41667 10.0044 2.25C10.1877 2.08333 10.4044 2 10.6544 2H14.4044C14.6544 2 14.8711 2.08333 15.0544 2.25C15.2377 2.41667 15.3461 2.625 15.3794 2.875L15.6794 5.2C15.8961 5.28333 16.1004 5.38333 16.2924 5.5C16.4844 5.61667 16.6717 5.74167 16.8544 5.875L19.0294 4.975C19.2627 4.89167 19.4961 4.88333 19.7294 4.95C19.9627 5.01667 20.1461 5.15833 20.2794 5.375L22.1294 8.6C22.2627 8.81667 22.3044 9.05 22.2544 9.3C22.2044 9.55 22.0794 9.75 21.8794 9.9L20.0044 11.325C20.0211 11.4417 20.0294 11.5543 20.0294 11.663V12.337C20.0294 12.4457 20.0127 12.5583 19.9794 12.675L21.8544 14.1C22.0544 14.25 22.1794 14.45 22.2294 14.7C22.2794 14.95 22.2377 15.1833 22.1044 15.4L20.2544 18.6C20.1211 18.8167 19.9334 18.9627 19.6914 19.038C19.4494 19.1133 19.2121 19.109 18.9794 19.025L16.8544 18.125C16.6711 18.2583 16.4794 18.3833 16.2794 18.5C16.0794 18.6167 15.8794 18.7167 15.6794 18.8L15.3794 21.125C15.3461 21.375 15.2377 21.5833 15.0544 21.75C14.8711 21.9167 14.6544 22 14.4044 22ZM12.5794 15.5C13.5461 15.5 14.3711 15.1583 15.0544 14.475C15.7377 13.7917 16.0794 12.9667 16.0794 12C16.0794 11.0333 15.7377 10.2083 15.0544 9.525C14.3711 8.84167 13.5461 8.5 12.5794 8.5C11.5961 8.5 10.7667 8.84167 10.0914 9.525C9.41606 10.2083 9.07872 11.0333 9.07939 12C9.07939 12.9667 9.41672 13.7917 10.0914 14.475C10.7661 15.1583 11.5954 15.5 12.5794 15.5ZM12.5794 13.5C12.1627 13.5 11.8084 13.354 11.5164 13.062C11.2244 12.77 11.0787 12.416 11.0794 12C11.0794 11.5833 11.2254 11.229 11.5174 10.937C11.8094 10.645 12.1634 10.4993 12.5794 10.5C12.9961 10.5 13.3504 10.646 13.6424 10.938C13.9344 11.23 14.0801 11.584 14.0794 12C14.0794 12.4167 13.9334 12.771 13.6414 13.063C13.3494 13.355 12.9954 13.5007 12.5794 13.5ZM11.5294 20H13.5044L13.8544 17.35C14.3711 17.2167 14.8504 17.0207 15.2924 16.762C15.7344 16.5033 16.1384 16.191 16.5044 15.825L18.9794 16.85L19.9544 15.15L17.8044 13.525C17.8877 13.2917 17.9461 13.046 17.9794 12.788C18.0127 12.53 18.0294 12.2673 18.0294 12C18.0294 11.7333 18.0127 11.471 17.9794 11.213C17.9461 10.955 17.8877 10.709 17.8044 10.475L19.9544 8.85L18.9794 7.15L16.5044 8.2C16.1377 7.81667 15.7337 7.496 15.2924 7.238C14.8511 6.98 14.3717 6.784 13.8544 6.65L13.5294 4H11.5544L11.2044 6.65C10.6877 6.78333 10.2087 6.97933 9.76739 7.238C9.32606 7.49667 8.92172 7.809 8.55439 8.175L6.07939 7.15L5.10439 8.85L7.25439 10.45C7.17106 10.7 7.11272 10.95 7.07939 11.2C7.04606 11.45 7.02939 11.7167 7.02939 12C7.02939 12.2667 7.04606 12.525 7.07939 12.775C7.11272 13.025 7.17106 13.275 7.25439 13.525L5.10439 15.15L6.07939 16.85L8.55439 15.8C8.92106 16.1833 9.32539 16.5043 9.76739 16.763C10.2094 17.0217 10.6884 17.2173 11.2044 17.35L11.5294 20Z" fill="#29384E"/>
</svg>
