<svg width="25" height="24" viewBox="0 0 25 24" fill="none" xmlns="http://www.w3.org/2000/svg">
<path d="M7.5293 6C7.79451 6 8.04887 5.89464 8.2364 5.70711C8.42394 5.51957 8.5293 5.26522 8.5293 5C8.5293 4.73478 8.42394 4.48043 8.2364 4.29289C8.04887 4.10536 7.79451 4 7.5293 4H5.5293C5.26408 4 5.00973 4.10536 4.82219 4.29289C4.63465 4.48043 4.5293 4.73478 4.5293 5V19C4.5293 19.2652 4.63465 19.5196 4.82219 19.7071C5.00973 19.8946 5.26408 20 5.5293 20H7.5293C7.79451 20 8.04887 19.8946 8.2364 19.7071C8.42394 19.5196 8.5293 19.2652 8.5293 19C8.5293 18.7348 8.42394 18.4804 8.2364 18.2929C8.04887 18.1054 7.79451 18 7.5293 18H6.5293V6H7.5293ZM21.3493 11.42L18.5293 7.42C18.3764 7.20441 18.1443 7.05814 17.8838 7.01317C17.6234 6.9682 17.3557 7.02818 17.1393 7.18C17.0311 7.25579 16.9391 7.35224 16.8684 7.46381C16.7977 7.57537 16.7499 7.69982 16.7275 7.82998C16.7052 7.96015 16.7089 8.09344 16.7384 8.22217C16.7679 8.3509 16.8226 8.47252 16.8993 8.58L18.6193 11H10.5293C10.2641 11 10.0097 11.1054 9.82219 11.2929C9.63465 11.4804 9.5293 11.7348 9.5293 12C9.5293 12.2652 9.63465 12.5196 9.82219 12.7071C10.0097 12.8946 10.2641 13 10.5293 13H18.5293L16.7293 15.4C16.6505 15.5051 16.5932 15.6246 16.5606 15.7518C16.528 15.879 16.5208 16.0114 16.5393 16.1414C16.5579 16.2714 16.6019 16.3965 16.6688 16.5095C16.7357 16.6225 16.8242 16.7212 16.9293 16.8C17.1024 16.9298 17.3129 17 17.5293 17C17.6845 17 17.8377 16.9639 17.9765 16.8944C18.1154 16.825 18.2361 16.7242 18.3293 16.6L21.3293 12.6C21.4574 12.4309 21.5283 12.2254 21.5319 12.0133C21.5355 11.8011 21.4716 11.5934 21.3493 11.42Z" fill="#29384E"/>
</svg>
