<svg width="25" height="24" viewBox="0 0 25 24" fill="none" xmlns="http://www.w3.org/2000/svg">
<path d="M11.7793 15H13.2793V18H11.7793V15ZM15.5293 13.5H17.0293V18H15.5293V13.5ZM8.0293 10.5H9.5293V18H8.0293V10.5Z" fill="#29384E"/>
<path d="M19.2793 3.75H17.0293V3C17.0293 2.60218 16.8713 2.22064 16.59 1.93934C16.3087 1.65804 15.9271 1.5 15.5293 1.5H9.5293C9.13147 1.5 8.74994 1.65804 8.46864 1.93934C8.18733 2.22064 8.0293 2.60218 8.0293 3V3.75H5.7793C5.38147 3.75 4.99994 3.90804 4.71864 4.18934C4.43733 4.47064 4.2793 4.85218 4.2793 5.25V21C4.2793 21.3978 4.43733 21.7794 4.71864 22.0607C4.99994 22.342 5.38147 22.5 5.7793 22.5H19.2793C19.6771 22.5 20.0587 22.342 20.34 22.0607C20.6213 21.7794 20.7793 21.3978 20.7793 21V5.25C20.7793 4.85218 20.6213 4.47064 20.34 4.18934C20.0587 3.90804 19.6771 3.75 19.2793 3.75ZM9.5293 3H15.5293V6H9.5293V3ZM19.2793 21H5.7793V5.25H8.0293V7.5H17.0293V5.25H19.2793V21Z" fill="#29384E"/>
</svg>
