<svg width="25" height="24" viewBox="0 0 25 24" fill="none" xmlns="http://www.w3.org/2000/svg">
<path d="M23.7417 16.8C23.3292 15.525 21.9792 14.8125 20.7042 15.15L16.1667 16.2375C16.0542 15.15 15.1917 14.25 13.9917 14.0625H9.19175C8.81675 13.5 8.21675 13.125 7.46675 13.125H3.52925C2.25425 13.125 1.16675 14.175 1.16675 15.4875V20.1375C1.16675 21.4125 2.21675 22.5 3.52925 22.5H7.46675C8.02925 22.5 8.59175 22.275 8.96675 21.8625C9.04175 21.7875 9.07925 21.7125 9.15425 21.6375C10.2417 22.1625 11.4042 22.4625 12.5667 22.4625C13.2792 22.4625 13.9917 22.35 14.6667 22.1625L20.4042 20.4375L22.0167 19.95C22.6542 19.7625 23.2167 19.35 23.5542 18.75C23.8917 18.1875 23.9667 17.475 23.7417 16.8ZM7.76675 20.5875C7.69175 20.6625 7.57925 20.7 7.46675 20.7H3.52925C3.15425 20.7 2.85425 20.4 2.85425 20.025V15.4125C2.85425 15.0375 3.15425 14.7375 3.52925 14.7375H7.54175C7.72925 14.7375 7.87925 14.8875 7.87925 15.075V20.325C7.87925 20.475 7.80425 20.55 7.76675 20.5875ZM22.0917 17.9625C21.9792 18.15 21.8292 18.3 21.6042 18.3375L19.9542 18.825L14.2542 20.4375C12.7917 20.85 11.2542 20.7 9.90425 20.025L9.56675 19.8375V15.7125H13.8792C14.2917 15.7875 14.5542 16.0875 14.5542 16.425V16.6125L13.2792 16.9125C12.8292 17.025 12.5292 17.475 12.6417 17.925C12.7542 18.375 13.2042 18.675 13.6542 18.5625L21.1542 16.7625C21.5667 16.65 22.0167 16.875 22.1667 17.2875C22.2042 17.5125 22.2042 17.775 22.0917 17.9625Z" fill="#29384E"/>
<path d="M18.2667 8.0625H20.1792C20.7417 8.0625 21.2292 8.55 21.2292 9.1125C21.2292 9.675 20.7417 10.1625 20.1792 10.1625H17.2917C16.8417 10.1625 16.4292 10.5375 16.4292 11.025C16.4292 11.5125 16.8042 11.8875 17.2917 11.8875H18.3417V12C18.3417 12.45 18.7167 12.8625 19.2042 12.8625C19.6917 12.8625 20.0667 12.4875 20.0667 12V11.8875H20.1792C21.6792 11.8875 22.9167 10.65 22.9167 9.15C22.9167 7.65 21.6792 6.4125 20.1792 6.4125H18.2667C17.7042 6.4125 17.2167 5.925 17.2167 5.3625C17.2167 4.8 17.7042 4.3125 18.2667 4.3125H21.1167C21.5667 4.3125 21.9792 3.9375 21.9792 3.45C21.9792 2.9625 21.6042 2.5875 21.1167 2.5875H20.0667V2.4375C20.0667 1.9875 19.6917 1.575 19.2042 1.575C18.7167 1.575 18.3417 1.95 18.3417 2.4375V2.55H18.2292C16.7292 2.55 15.4917 3.7875 15.4917 5.2875C15.5292 6.825 16.7667 8.0625 18.2667 8.0625Z" fill="#29384E"/>
</svg>
