<svg width="21" height="21" viewBox="0 0 21 21" fill="none" xmlns="http://www.w3.org/2000/svg">
<path d="M9.50039 15.1L16.5504 8.05L15.1504 6.65L9.50039 12.3L6.65039 9.45L5.25039 10.85L9.50039 15.1ZM10.9004 20.5C9.51706 20.5 8.21706 20.2373 7.00039 19.712C5.78372 19.1873 4.72539 18.475 3.82539 17.575C2.92539 16.675 2.21306 15.6167 1.68839 14.4C1.16306 13.1833 0.900391 11.8833 0.900391 10.5C0.900391 9.11667 1.16306 7.81667 1.68839 6.6C2.21306 5.38333 2.92539 4.325 3.82539 3.425C4.72539 2.525 5.78372 1.81233 7.00039 1.287C8.21706 0.762333 9.51706 0.5 10.9004 0.5C12.2837 0.5 13.5837 0.762333 14.8004 1.287C16.0171 1.81233 17.0754 2.525 17.9754 3.425C18.8754 4.325 19.5877 5.38333 20.1124 6.6C20.6377 7.81667 20.9004 9.11667 20.9004 10.5C20.9004 11.8833 20.6377 13.1833 20.1124 14.4C19.5877 15.6167 18.8754 16.675 17.9754 17.575C17.0754 18.475 16.0171 19.1873 14.8004 19.712C13.5837 20.2373 12.2837 20.5 10.9004 20.5ZM10.9004 18.5C13.1337 18.5 15.0254 17.725 16.5754 16.175C18.1254 14.625 18.9004 12.7333 18.9004 10.5C18.9004 8.26667 18.1254 6.375 16.5754 4.825C15.0254 3.275 13.1337 2.5 10.9004 2.5C8.66706 2.5 6.77539 3.275 5.22539 4.825C3.67539 6.375 2.90039 8.26667 2.90039 10.5C2.90039 12.7333 3.67539 14.625 5.22539 16.175C6.77539 17.725 8.66706 18.5 10.9004 18.5Z" fill="#2AD7A1"/>
</svg>
