<svg width="24" height="28" viewBox="0 0 24 28" fill="none" xmlns="http://www.w3.org/2000/svg">
<path d="M10.184 27.382C4.96779 27.382 0.724609 22.4598 0.724609 16.4093C0.724609 10.3588 4.96797 5.43652 10.184 5.43652C15.3998 5.43652 19.6429 10.3587 19.6429 16.4093C19.6429 22.4597 15.3995 27.382 10.184 27.382ZM10.184 6.51652C5.48155 6.51652 1.65565 10.9543 1.65565 16.4093C1.65565 21.8642 5.48167 26.302 10.184 26.302C14.8864 26.302 18.7118 21.8642 18.7118 16.4093C18.7118 10.9543 14.8863 6.51652 10.184 6.51652Z" fill="#29384E"/>
<path d="M10.1843 24.4009C6.38507 24.4009 3.29395 20.8158 3.29395 16.4089C3.29395 12.0021 6.38484 8.41699 10.1843 8.41699C13.983 8.41699 17.074 12.0021 17.074 16.4089C17.074 20.8158 13.9831 24.4009 10.1843 24.4009ZM10.1843 9.49699C6.89831 9.49699 4.22499 12.5978 4.22499 16.4089C4.22499 20.22 6.89814 23.3209 10.1843 23.3209C13.4697 23.3209 16.143 20.2201 16.143 16.4089C16.143 12.5979 13.4698 9.49699 10.1843 9.49699Z" fill="#29384E"/>
<path d="M10.1834 21.4205C7.80125 21.4205 5.86328 19.1724 5.86328 16.4095C5.86328 13.6465 7.80131 11.3984 10.1834 11.3984C12.5652 11.3984 14.5031 13.6465 14.5031 16.4095C14.5031 19.1724 12.5651 21.4205 10.1834 21.4205ZM10.1834 12.4782C8.31455 12.4782 6.79433 14.2416 6.79433 16.4092C6.79433 18.5768 8.31455 20.3402 10.1834 20.3402C12.0519 20.3402 13.5721 18.5768 13.5721 16.4092C13.5721 14.2416 12.0519 12.4782 10.1834 12.4782Z" fill="#29384E"/>
<path d="M10.1843 18.4397C9.21916 18.4397 8.43359 17.529 8.43359 16.4094C8.43359 15.2899 9.21916 14.3789 10.1843 14.3789C11.1495 14.3789 11.9346 15.2899 11.9346 16.4094C11.9346 17.529 11.1495 18.4397 10.1843 18.4397ZM10.1843 15.4589C9.73243 15.4589 9.36464 15.8853 9.36464 16.4094C9.36464 16.9333 9.73242 17.3597 10.1843 17.3597C10.6362 17.3597 11.0035 16.9333 11.0035 16.4094C11.0035 15.8853 10.6362 15.4589 10.1843 15.4589Z" fill="#29384E"/>
<path d="M10.1843 16.9495C10.0652 16.9495 9.94605 16.8968 9.85513 16.7913C9.67329 16.5806 9.67329 16.2387 9.85513 16.0278L18.0478 6.52246C18.2296 6.31152 18.5242 6.31152 18.706 6.52246C18.8878 6.73313 18.8878 7.07511 18.706 7.28602L10.5134 16.7913C10.4225 16.8968 10.3033 16.9495 10.1842 16.9495H10.1843Z" fill="#29384E"/>
<path d="M21.4171 7.4438H18.3776C18.1203 7.4438 17.9121 7.20202 17.9121 6.90381V3.3783C17.9121 3.23513 17.9612 3.09776 18.0485 2.99651L20.1665 0.539863C20.2997 0.385086 20.4997 0.33974 20.6739 0.422792C20.848 0.506377 20.9612 0.703334 20.9612 0.921655V3.90716H23.5348C23.723 3.90716 23.893 4.03873 23.9648 4.24044C24.0371 4.44215 23.9971 4.67444 23.8639 4.82896L21.7463 7.2856C21.659 7.38685 21.5408 7.44381 21.4172 7.44381L21.4171 7.4438ZM18.8432 6.36381H21.2244L22.411 4.98716H20.4957C20.2384 4.98716 20.0302 4.74537 20.0302 4.44716V2.22521L18.8432 3.60186L18.8432 6.36381Z" fill="#D02049"/>
</svg>
