<svg width="36" height="36" viewBox="0 0 36 36" fill="none" xmlns="http://www.w3.org/2000/svg">
<rect x="0.5" y="0.5" width="35" height="35" rx="17.5" fill="white"/>
<path d="M10 28C9.45 28 8.97933 27.8043 8.588 27.413C8.196 27.021 8 26.55 8 26V14C8 13.45 8.196 12.9793 8.588 12.588C8.97933 12.196 9.45 12 10 12H13.15L15 10H21V12H15.875L14.05 14H10V26H26V15H28V26C28 26.55 27.8043 27.021 27.413 27.413C27.021 27.8043 26.55 28 26 28H10ZM26.65 14C26.65 12.7 26.2 11.6 25.3 10.7C24.4 9.8 23.3 9.35 22 9.35V8C23.6667 8 25.0833 8.58333 26.25 9.75C27.4167 10.9167 28 12.3333 28 14H26.65ZM24 14C24 13.45 23.8043 12.9793 23.413 12.588C23.021 12.196 22.55 12 22 12V10.65C22.9167 10.65 23.6957 10.975 24.337 11.625C24.979 12.275 25.3167 13.0667 25.35 14H24ZM18 24.5C19.25 24.5 20.3127 24.0627 21.188 23.188C22.0627 22.3127 22.5 21.25 22.5 20C22.5 18.75 22.0627 17.6873 21.188 16.812C20.3127 15.9373 19.25 15.5 18 15.5C16.75 15.5 15.6873 15.9373 14.812 16.812C13.9373 17.6873 13.5 18.75 13.5 20C13.5 21.25 13.9373 22.3127 14.812 23.188C15.6873 24.0627 16.75 24.5 18 24.5ZM18 22.5C17.3 22.5 16.7083 22.2583 16.225 21.775C15.7417 21.2917 15.5 20.7 15.5 20C15.5 19.3 15.7417 18.7083 16.225 18.225C16.7083 17.7417 17.3 17.5 18 17.5C18.7 17.5 19.2917 17.7417 19.775 18.225C20.2583 18.7083 20.5 19.3 20.5 20C20.5 20.7 20.2583 21.2917 19.775 21.775C19.2917 22.2583 18.7 22.5 18 22.5Z" fill="#D02049"/>
<rect x="0.5" y="0.5" width="35" height="35" rx="17.5" stroke="#D02049"/>
</svg>
