<svg width="21" height="18" viewBox="0 0 21 18" fill="none" xmlns="http://www.w3.org/2000/svg">
<path d="M15.5515 3.09769L15.5297 3.10547H15.5625H18.75C19.7795 3.10547 20.6133 3.93929 20.6133 4.96875V15.6562C20.6133 16.6857 19.7795 17.5195 18.75 17.5195H2.25C1.22053 17.5195 0.386719 16.6857 0.386719 15.6562V4.96875C0.386719 3.93929 1.22053 3.10547 2.25 3.10547H5.4375V3.12853L5.44853 3.0977L6.21025 0.969574L6.21026 0.969539C6.31406 0.676595 6.59321 0.480469 6.90469 0.480469L14.0953 0.480469L14.0953 0.480469C14.2477 0.480334 14.3964 0.527244 14.5211 0.614789C14.6458 0.702334 14.7405 0.826246 14.7921 0.969597L15.5515 3.09769ZM6.73828 10.0312C6.73828 12.1096 8.42165 13.793 10.5 13.793C12.5783 13.793 14.2617 12.1096 14.2617 10.0312C14.2617 7.9529 12.5783 6.26953 10.5 6.26953C8.42165 6.26953 6.73828 7.9529 6.73828 10.0312ZM8.9173 11.614C8.49754 11.1942 8.26172 10.6249 8.26172 10.0312C8.26172 9.43762 8.49754 8.8683 8.9173 8.44855C9.33705 8.02879 9.90637 7.79297 10.5 7.79297C11.0936 7.79297 11.6629 8.02879 12.0827 8.44855C12.5025 8.8683 12.7383 9.43762 12.7383 10.0312C12.7383 10.6249 12.5025 11.1942 12.0827 11.614C11.6629 12.0337 11.0936 12.2695 10.5 12.2695C9.90637 12.2695 9.33705 12.0337 8.9173 11.614Z" fill="#D02049" stroke="#6D7379" stroke-width="0.0234375"/>
</svg>
