<svg width="21" height="20" viewBox="0 0 21 20" fill="none" xmlns="http://www.w3.org/2000/svg">
<path d="M2.5 20C1.95 20 1.47933 19.8043 1.088 19.413C0.696 19.021 0.5 18.55 0.5 18V6C0.5 5.45 0.696 4.97933 1.088 4.588C1.47933 4.196 1.95 4 2.5 4H5.65L7.5 2H13.5V4H8.375L6.55 6H2.5V18H18.5V7H20.5V18C20.5 18.55 20.3043 19.021 19.913 19.413C19.521 19.8043 19.05 20 18.5 20H2.5ZM19.15 6C19.15 4.7 18.7 3.6 17.8 2.7C16.9 1.8 15.8 1.35 14.5 1.35V0C16.1667 0 17.5833 0.583333 18.75 1.75C19.9167 2.91667 20.5 4.33333 20.5 6H19.15ZM16.5 6C16.5 5.45 16.3043 4.97933 15.913 4.588C15.521 4.196 15.05 4 14.5 4V2.65C15.4167 2.65 16.1957 2.975 16.837 3.625C17.479 4.275 17.8167 5.06667 17.85 6H16.5ZM10.5 16.5C11.75 16.5 12.8127 16.0627 13.688 15.188C14.5627 14.3127 15 13.25 15 12C15 10.75 14.5627 9.68733 13.688 8.812C12.8127 7.93733 11.75 7.5 10.5 7.5C9.25 7.5 8.18733 7.93733 7.312 8.812C6.43733 9.68733 6 10.75 6 12C6 13.25 6.43733 14.3127 7.312 15.188C8.18733 16.0627 9.25 16.5 10.5 16.5ZM10.5 14.5C9.8 14.5 9.20833 14.2583 8.725 13.775C8.24167 13.2917 8 12.7 8 12C8 11.3 8.24167 10.7083 8.725 10.225C9.20833 9.74167 9.8 9.5 10.5 9.5C11.2 9.5 11.7917 9.74167 12.275 10.225C12.7583 10.7083 13 11.3 13 12C13 12.7 12.7583 13.2917 12.275 13.775C11.7917 14.2583 11.2 14.5 10.5 14.5Z" fill="#D02049"/>
</svg>
