<svg width="24" height="25" viewBox="0 0 24 25" fill="none" xmlns="http://www.w3.org/2000/svg">
<path d="M17.356 6.35736L12.0002 11.7127L6.64434 6.35736L5.85742 7.14469L11.2128 12.5L5.85742 17.8559L6.64434 18.643L12.0002 13.2877L17.356 18.643L18.1435 17.8559L12.7877 12.5L18.1435 7.14469L17.356 6.35736Z" fill="#29384E"/>
<path d="M12 0.5C5.3831 0.5 0 5.8831 0 12.5C0 19.1169 5.3831 24.5 12 24.5C18.6169 24.5 24 19.1169 24 12.5C24 5.8831 18.6169 0.5 12 0.5ZM12 23.6432C5.85574 23.6432 0.856812 18.6441 0.856812 12.5C0.856812 6.35574 5.85548 1.35681 12 1.35681C18.1437 1.35681 23.1432 6.35548 23.1432 12.5C23.1432 18.6437 18.1441 23.6432 12 23.6432Z" fill="#29384E"/>
</svg>
