<svg width="59" height="65" viewBox="0 0 59 65" fill="none" xmlns="http://www.w3.org/2000/svg">
<path d="M22.8109 19.5917H17.9148V15.3331H28.661C28.661 15.3331 30.817 25.6564 20.3024 29.6181C18.3333 26.0159 17.9148 25.2957 17.9148 25.2957C17.9148 25.2957 22.3326 24.1546 22.8109 19.5917Z" fill="white"/>
<path d="M37.7407 32.4601H31.8545C31.4298 28.5936 28.1653 27.1995 27.22 26.8764C28.3546 25.6577 29.2137 24.2067 29.7384 22.6228C35.4814 24.9412 37.2662 29.2136 37.7407 32.4576" fill="white"/>
<path d="M34.9359 9.52893H29.7695V14.7244H34.9359V9.52893Z" fill="white"/>
<path d="M17.8622 43.2822V46.1002H14.9976C14.8889 47.4976 14.2678 48.6155 13.1344 49.4539C12.2028 50.1371 11.116 50.4786 9.87388 50.4786C8.89572 50.4786 7.94085 50.2147 7.00927 49.6868V47.1482C7.84769 47.6296 8.68611 47.8702 9.52453 47.8702C10.1766 47.8702 10.7511 47.6917 11.248 47.3346C11.7603 46.9775 12.0398 46.5505 12.0864 46.0536C11.9622 46.0381 11.7681 46.0226 11.5041 46.0071C11.2402 45.976 11.0384 45.9527 10.8986 45.9372C9.2994 45.7664 8.06506 45.1376 7.19559 44.0507C6.46585 43.1347 6.10098 42.0246 6.10098 40.7204C6.10098 39.0125 6.56677 37.6617 7.49835 36.668C8.32125 35.7985 9.40809 35.3638 10.7589 35.3638C12.1407 35.3638 13.2198 35.8063 13.9961 36.6913C14.6637 37.4521 14.9976 38.4457 14.9976 39.6723V43.2822H17.8622ZM12.0864 39.6257C12.0864 38.601 11.6439 38.0886 10.7589 38.0886C9.57888 38.0886 8.98888 38.9348 8.98888 40.6272C8.98888 42.1332 9.67203 42.9717 11.0384 43.1425C11.2557 43.189 11.6051 43.2279 12.0864 43.2589V39.6257ZM20.1948 39.6723C20.1948 38.275 20.6295 37.1804 21.499 36.3885C22.2598 35.7054 23.2379 35.3638 24.4334 35.3638C25.9705 35.3638 27.1661 35.9305 28.02 37.0639C28.7498 38.011 29.1146 39.2298 29.1146 40.7204C29.1146 42.4438 28.6566 43.8023 27.7405 44.796C26.9176 45.6655 25.8696 46.1002 24.5965 46.1002C23.3544 46.1002 22.3374 45.8285 21.5455 45.2851C20.8003 45.8285 19.8998 46.1002 18.844 46.1002H16.4684V43.2822H18.5645C19.1545 43.2822 19.5737 43.158 19.8221 42.9096C20.0705 42.6456 20.1948 42.2109 20.1948 41.6054V39.6723ZM23.1292 41.978C23.1292 42.8475 23.5873 43.2822 24.5033 43.2822C25.6523 43.2822 26.2267 42.3972 26.2267 40.6272C26.2267 38.9348 25.629 38.0886 24.4334 38.0886C23.564 38.0886 23.1292 38.601 23.1292 39.6257V41.978ZM44.0173 43.2822V46.1002H41.1527C41.044 47.4976 40.423 48.6155 39.2896 49.4539C38.358 50.1371 37.2712 50.4786 36.029 50.4786C35.0509 50.4786 34.096 50.2147 33.1644 49.6868V47.1482C34.0029 47.6296 34.8413 47.8702 35.6797 47.8702C36.3318 47.8702 36.9063 47.6917 37.4031 47.3346C37.9155 46.9775 38.195 46.5505 38.2415 46.0536C38.1173 46.0381 37.9233 46.0226 37.6593 46.0071C37.3954 45.976 37.1935 45.9527 37.0538 45.9372C35.4546 45.7664 34.2202 45.1376 33.3508 44.0507C32.621 43.1347 32.2562 42.0246 32.2562 40.7204C32.2562 39.0125 32.7219 37.6617 33.6535 36.668C34.4764 35.7985 35.5633 35.3638 36.914 35.3638C38.2959 35.3638 39.375 35.8063 40.1513 36.6913C40.8189 37.4521 41.1527 38.4457 41.1527 39.6723V43.2822H44.0173ZM38.2415 39.6257C38.2415 38.601 37.799 38.0886 36.914 38.0886C35.734 38.0886 35.144 38.9348 35.144 40.6272C35.144 42.1332 35.8272 42.9717 37.1935 43.1425C37.4109 43.189 37.7602 43.2279 38.2415 43.2589V39.6257ZM44.3005 33.4075C43.8347 33.4075 43.462 33.2677 43.1826 32.9882C42.9031 32.7088 42.7633 32.3284 42.7633 31.8471C42.7633 30.8378 43.2757 30.3332 44.3005 30.3332C44.7662 30.3332 45.1311 30.473 45.3951 30.7525C45.6745 31.0164 45.8143 31.3813 45.8143 31.8471C45.8143 32.8873 45.3097 33.4075 44.3005 33.4075ZM47.887 33.4075C47.4212 33.4075 47.0486 33.2677 46.7691 32.9882C46.4897 32.7088 46.3499 32.3284 46.3499 31.8471C46.3499 30.8378 46.8623 30.3332 47.887 30.3332C48.3528 30.3332 48.7177 30.473 48.9816 30.7525C49.2611 31.0164 49.4008 31.3813 49.4008 31.8471C49.4008 32.8873 48.8962 33.4075 47.887 33.4075ZM42.6236 46.1002V43.2822H44.7197C45.3097 43.2822 45.7289 43.158 45.9773 42.9096C46.2257 42.6456 46.3499 42.2109 46.3499 41.6054V37.2968L49.2844 35.7597V41.7451C49.2844 43.158 48.8497 44.2604 47.9802 45.0522C47.2194 45.7509 46.2257 46.1002 44.9991 46.1002H42.6236Z" fill="white"/>
</svg>
