<svg width="18" height="18" viewBox="0 0 18 18" fill="none" xmlns="http://www.w3.org/2000/svg">
<path d="M9 0C4.02975 0 0 4.02919 0 9C0 13.9708 4.02919 18 9 18C13.9708 18 18.0006 13.9708 18.0006 9C18.0006 4.02919 13.9714 0 9 0ZM9 16.893C4.6575 16.893 1.125 13.3425 1.125 9C1.125 4.6575 4.6575 1.125 9 1.125C13.3425 1.125 16.8756 4.6575 16.8756 9C16.8756 13.3425 13.3425 16.893 9 16.893ZM8.17313 14.0709H9.58838V12.6427H8.17313V14.0709ZM8.98312 3.92906C8.15906 3.92906 7.48013 4.15125 6.94688 4.59506C6.41363 5.03887 6.15431 5.92819 6.16725 6.66506L6.18806 6.70612H7.479C7.479 6.26681 7.62581 5.63513 7.91831 5.40788C8.21081 5.18062 8.56631 5.06813 8.98312 5.06813C9.4635 5.06813 9.83306 5.19863 10.0918 5.45963C10.3506 5.72063 10.4794 6.09356 10.4794 6.57844C10.4794 6.98625 10.3837 7.33388 10.1914 7.62188C9.99844 7.90987 9.67612 8.32219 9.22331 8.85825C8.75587 9.27956 8.46731 9.61819 8.35819 9.87413C8.24906 10.1301 8.19112 10.5907 8.18662 11.2545H9.53944C9.53944 10.8382 9.56588 10.5317 9.61819 10.3342C9.6705 10.1368 9.82069 9.91575 10.0676 9.66825C10.5992 9.15581 11.0256 8.65462 11.3484 8.16413C11.6707 7.67475 11.8322 7.13419 11.8322 6.54356C11.8322 5.7195 11.583 5.07712 11.0835 4.61756C10.584 4.158 9.88313 3.92794 8.982 3.92794L8.98312 3.92906Z" fill="#D02049"/>
</svg>
