<svg width="24" height="14" viewBox="0 0 24 14" fill="none" xmlns="http://www.w3.org/2000/svg">
<path d="M13.263 6.04883H9.61523V7.9798H13.263V6.04883Z" fill="#F1EBEB"/>
<path d="M11.9964 6.90191V7.12677C11.9964 7.59791 11.6145 7.9798 11.1398 7.9798H0.856641C0.381938 7.9798 0 7.59791 0 7.12677V6.90191C0 6.43077 0.381938 6.04883 0.856641 6.04883H11.1398C11.6145 6.04883 11.9964 6.43077 11.9964 6.90191Z" fill="#F1EBEB"/>
<path d="M5.2508 6.99856C5.2508 7.33409 5.24367 7.66245 5.23655 7.98012C5.18658 9.45425 5.02598 10.7178 4.80825 11.4959C4.72973 11.7672 4.64409 11.9777 4.55484 12.1205C4.47989 12.2419 4.40494 12.3133 4.32281 12.3275C4.30856 12.3346 4.29783 12.3346 4.28353 12.3346H2.10623C1.95277 12.3346 1.80642 12.1312 1.67438 11.7707C1.41023 11.0354 1.21392 9.64339 1.15683 7.98008C1.14966 7.66241 1.14258 7.33405 1.14258 6.99852C1.14258 6.67372 1.14614 6.35605 1.15683 6.04911C1.22466 4.04314 1.49236 2.42623 1.84214 1.87302C1.90284 1.77664 1.96706 1.70881 2.03133 1.68388C2.05631 1.67314 2.0813 1.66602 2.10628 1.66602H4.28358C4.29783 1.66602 4.30856 1.66602 4.32286 1.67314C4.40494 1.68739 4.47989 1.75878 4.55489 1.88019C4.64414 2.02297 4.72978 2.23714 4.8083 2.50841C5.02603 3.29366 5.18663 4.5643 5.23659 6.04916C5.24723 6.35605 5.2508 6.67377 5.2508 6.99856Z" fill="#424242"/>
<path d="M5.19319 6.99852C5.19319 7.33405 5.18963 7.66241 5.17894 7.98008C5.13609 9.4542 4.99692 10.7178 4.80773 11.4958C4.73278 11.7957 4.6507 12.0241 4.56502 12.1669C4.49719 12.2775 4.4258 12.3346 4.35445 12.3346C4.34372 12.3346 4.33303 12.3346 4.3223 12.3275C3.92611 12.2347 3.60127 10.393 3.52992 7.98008C3.51919 7.66241 3.51562 7.33405 3.51562 6.99852C3.51562 6.67372 3.51919 6.35605 3.52992 6.04911C3.59775 3.62197 3.92255 1.76595 4.3223 1.67314C4.33303 1.66602 4.34372 1.66602 4.35445 1.66602C4.4258 1.66602 4.49723 1.72316 4.56502 1.83378C4.65066 1.97656 4.73278 2.20498 4.80773 2.50841C5.00048 3.29366 5.13966 4.5643 5.17894 6.04916C5.18963 6.356 5.19319 6.67372 5.19319 6.99852Z" fill="#9F6B7C"/>
<path d="M8.83405 6.99824C8.83405 7.33016 8.83049 7.65857 8.81976 7.9798C8.81976 8.17612 8.81263 8.37243 8.80551 8.56518C8.69845 11.4528 8.30226 13.6371 7.81682 13.8406C7.79184 13.8549 7.76685 13.8585 7.74187 13.8585H5.27905C5.00423 13.8585 4.75438 13.2196 4.5652 12.1666C4.55807 12.1523 4.55807 12.1345 4.55451 12.1202C4.36888 11.0708 4.23684 9.61813 4.20468 7.9798C4.19399 7.65857 4.19043 7.33021 4.19043 6.99824C4.19043 6.67701 4.19399 6.35934 4.20112 6.04884C4.23684 4.39982 4.36532 2.93638 4.55451 1.87987C4.55807 1.86557 4.55807 1.84771 4.5652 1.83346C4.75434 0.780508 5.00418 0.141602 5.27901 0.141602H7.74182C7.76681 0.141602 7.79179 0.145164 7.81677 0.159461C8.30221 0.362898 8.70196 2.56162 8.80546 5.45985C8.81259 5.6526 8.81971 5.84891 8.82332 6.04879C8.83049 6.35934 8.83405 6.67701 8.83405 6.99824Z" fill="#424242"/>
<path d="M8.98062 6.99824C8.98062 7.33016 8.97705 7.65857 8.96637 7.9798C8.96637 8.17255 8.95924 8.36174 8.95212 8.54732C8.84145 11.5919 8.40959 13.8584 7.89204 13.8584C7.86705 13.8584 7.84207 13.8549 7.81709 13.8406C7.29954 13.6229 6.88193 11.1529 6.8141 7.97976C6.80341 7.65852 6.7998 7.33016 6.7998 6.9982C6.7998 6.67696 6.80337 6.35929 6.81054 6.04879C6.88193 2.86138 7.29954 0.377148 7.81709 0.159414C7.84202 0.145164 7.86701 0.141602 7.89199 0.141602C8.4131 0.141602 8.84501 2.42235 8.95207 5.47771C8.95919 5.66334 8.96632 5.85609 8.96993 6.04884C8.97705 6.35934 8.98062 6.67701 8.98062 6.99824Z" fill="#9F6B7C"/>
<path opacity="0.1" d="M10.1045 6.04883H9.41211V7.9798H10.1045V6.04883Z" fill="#040000"/>
<path d="M9.59404 6.03418V7.99374C9.59404 8.28287 9.40841 8.52198 9.17999 8.52198L8.95157 8.54696L8.80523 8.56482L7.7166 8.6933C7.71304 8.6933 7.71304 8.6933 7.71304 8.6933C7.69879 8.6933 7.69162 8.68262 7.69162 8.66476C7.69162 8.66476 7.63096 8.47557 7.59168 7.97944C7.57382 7.73673 7.55957 7.41905 7.55957 7.01218C7.55957 6.64454 7.57743 6.31618 7.60241 6.04848C7.64165 5.6273 7.69166 5.3596 7.69166 5.3596C7.69166 5.3453 7.69879 5.33462 7.71309 5.33462C7.71309 5.33105 7.71309 5.33105 7.71665 5.33105L8.80527 5.45954L8.95162 5.4774L9.18004 5.50595C9.40841 5.5059 9.59404 5.74505 9.59404 6.03418Z" fill="#F1EBEB"/>
<path d="M14.3841 6.04883H10.7363V7.9798H14.3841V6.04883Z" fill="#F1EBEB"/>
<path d="M24.0003 6.90191V7.12677C24.0003 7.59791 23.6184 7.9798 23.1437 7.9798H12.8605C12.8141 7.9798 12.7677 7.97623 12.7249 7.96911C12.3145 7.90484 12.0039 7.5515 12.0039 7.12677V6.90191C12.0039 6.43077 12.3858 6.04883 12.8605 6.04883H23.1437C23.6184 6.04883 24.0003 6.43077 24.0003 6.90191Z" fill="#F1EBEB"/>
<path d="M22.8582 6.99852C22.8582 7.33405 22.8511 7.66241 22.844 7.98008C22.8404 8.05859 22.8368 8.13355 22.8332 8.21211C22.8332 8.28706 22.8297 8.36202 22.8225 8.43697C22.8118 8.66183 22.7976 8.87956 22.7833 9.09369C22.7726 9.2008 22.7655 9.3043 22.7548 9.40423C22.7476 9.50061 22.7369 9.59698 22.7262 9.6898C22.6834 10.111 22.6263 10.4965 22.5656 10.832C22.5513 10.9141 22.5335 10.9962 22.5192 11.0711C22.3907 11.6636 22.2372 12.0777 22.0659 12.249C22.0516 12.2632 22.0373 12.274 22.023 12.2847C21.9838 12.3168 21.9374 12.3346 21.8946 12.3346H19.7173C19.7102 12.3346 19.7031 12.3311 19.6959 12.3311C19.6888 12.3311 19.6852 12.3311 19.678 12.3275C19.6745 12.3311 19.6709 12.3275 19.6673 12.3275C19.5888 12.3061 19.5174 12.2347 19.446 12.1205C19.3567 11.9777 19.2711 11.7672 19.1962 11.4959C18.9749 10.7178 18.8142 9.45425 18.7643 7.98013C18.7572 7.66245 18.75 7.33409 18.75 6.99856C18.75 6.67377 18.7536 6.35609 18.7643 6.04916C18.8143 4.5643 18.9749 3.29366 19.1962 2.50841C19.2711 2.23714 19.3568 2.02297 19.446 1.88019C19.5174 1.76595 19.5888 1.69456 19.6673 1.67314C19.6709 1.67314 19.6744 1.66958 19.678 1.67314C19.6852 1.66958 19.6887 1.66958 19.6959 1.66958C19.703 1.66602 19.7101 1.66602 19.7173 1.66602H21.8946C21.9089 1.66602 21.9231 1.66958 21.9374 1.67314C21.9481 1.67314 21.9553 1.6767 21.9624 1.68027C22.0231 1.70169 22.0802 1.75522 22.1337 1.83373C22.1516 1.85516 22.1658 1.88014 22.1801 1.90513C22.2372 2.00506 22.2943 2.12998 22.3443 2.28345C22.3586 2.31913 22.3693 2.3548 22.38 2.39413C22.4693 2.67964 22.5478 3.03303 22.612 3.44708C22.6227 3.50061 22.6298 3.55414 22.637 3.60767C22.6477 3.67189 22.6584 3.73972 22.6655 3.80755C22.6905 3.96819 22.7084 4.13947 22.7262 4.31441C22.7333 4.37867 22.7404 4.44645 22.7476 4.51428C22.7618 4.64994 22.7726 4.78911 22.7833 4.92833C22.794 5.07111 22.8047 5.21389 22.8119 5.3638C22.8262 5.58866 22.8368 5.81708 22.844 6.04911C22.8547 6.356 22.8582 6.67372 22.8582 6.99852Z" fill="#424242"/>
<path d="M20.4843 6.99856C20.4843 7.33409 20.4807 7.66245 20.47 7.98012C20.3986 10.3715 20.0809 12.2026 19.6883 12.3275C19.6847 12.3275 19.6811 12.3311 19.6776 12.3275C19.6705 12.3311 19.6668 12.3347 19.6597 12.3311C19.6562 12.3311 19.6526 12.3347 19.6454 12.3347C19.624 12.3347 19.6026 12.3275 19.5812 12.3168C19.5669 12.3097 19.5526 12.3026 19.5383 12.2883C19.5026 12.2633 19.4705 12.224 19.4384 12.1705L19.4348 12.1669C19.3491 12.0241 19.267 11.7957 19.1957 11.4959C19.0029 10.7178 18.8637 9.45425 18.8209 7.98012C18.8102 7.66245 18.8066 7.33409 18.8066 6.99856C18.8066 6.67377 18.8102 6.35609 18.8209 6.04916C18.8602 4.5643 18.9993 3.29366 19.1957 2.50841C19.267 2.20498 19.3491 1.97656 19.4348 1.83378L19.4384 1.83022C19.4705 1.77669 19.5026 1.73741 19.5383 1.71242C19.5526 1.69817 19.5669 1.691 19.5812 1.68388C19.6026 1.67314 19.624 1.66602 19.6454 1.66602C19.6525 1.66602 19.6562 1.66602 19.6597 1.66958C19.6668 1.66602 19.6704 1.66958 19.6776 1.67314C19.6811 1.66958 19.6847 1.67314 19.6883 1.67314C20.0809 1.79806 20.4021 3.64339 20.47 6.04911C20.4807 6.35605 20.4843 6.67377 20.4843 6.99856Z" fill="#9F6B7C"/>
<path d="M19.8096 6.99824C19.8096 7.33016 19.8061 7.65857 19.7953 7.9798C19.7632 9.61813 19.6312 11.0708 19.4456 12.1202C19.4456 12.1345 19.442 12.1488 19.4384 12.1631C19.4384 12.1666 19.4349 12.1666 19.4349 12.1666C19.4313 12.2095 19.4241 12.2523 19.4135 12.2916C19.3992 12.3772 19.3813 12.4593 19.3635 12.5378C19.3492 12.5949 19.3385 12.6521 19.3243 12.7092C19.2993 12.8198 19.2707 12.9269 19.2421 13.0233C19.2421 13.0233 19.2421 13.0268 19.2421 13.0304C19.2136 13.1233 19.185 13.2089 19.16 13.2874C19.1279 13.3695 19.0958 13.4444 19.0637 13.5087C19.0351 13.573 19.003 13.6301 18.9709 13.6765C18.953 13.7015 18.9388 13.7229 18.9209 13.7407C18.9066 13.7622 18.8887 13.7764 18.8745 13.7907C18.8602 13.805 18.8459 13.8157 18.8316 13.8228C18.8209 13.8299 18.8102 13.8371 18.7995 13.8407C18.7924 13.8442 18.7817 13.8478 18.771 13.8514C18.7567 13.8549 18.7389 13.8585 18.721 13.8585H16.2582C16.2332 13.8585 16.2082 13.8549 16.1833 13.8406C16.1797 13.8406 16.1797 13.8406 16.1761 13.8371C15.6943 13.6158 15.3016 11.4385 15.1946 8.56518C15.1874 8.37243 15.1803 8.17612 15.1803 7.9798C15.1696 7.65857 15.166 7.33021 15.166 6.99824C15.166 6.67701 15.1696 6.35934 15.1767 6.04884C15.1803 5.86321 15.1838 5.6812 15.191 5.5027C15.191 5.48845 15.1946 5.47415 15.1946 5.45985C15.2981 2.56157 15.6978 0.362898 16.1833 0.159461C16.2082 0.145164 16.2332 0.141602 16.2582 0.141602H18.721C18.9851 0.141602 19.2278 0.730539 19.4134 1.70849C19.417 1.72635 19.4205 1.74777 19.4241 1.76563C19.4313 1.78705 19.4348 1.80848 19.4348 1.83346C19.4348 1.83346 19.4384 1.83346 19.4384 1.83702C19.442 1.85127 19.4455 1.86557 19.4455 1.87987C19.6347 2.93638 19.7632 4.39977 19.7989 6.04884C19.806 6.35934 19.8096 6.67701 19.8096 6.99824Z" fill="#424242"/>
<path d="M17.2003 6.99824C17.2003 7.33016 17.1967 7.65857 17.186 7.9798C17.1181 11.1387 16.7041 13.6015 16.1901 13.8371C16.1866 13.8406 16.1866 13.8406 16.183 13.8406C16.158 13.8549 16.133 13.8585 16.1081 13.8585C16.0902 13.8585 16.0759 13.8549 16.0581 13.8514C16.051 13.8478 16.0438 13.8478 16.0331 13.8407C16.0189 13.8371 16.0081 13.8299 15.9974 13.8228C15.8761 13.7479 15.7618 13.5444 15.6548 13.241C15.6013 13.084 15.5477 12.8984 15.4977 12.6878C15.4977 12.6878 15.4977 12.6842 15.4977 12.6807C15.4728 12.5772 15.4478 12.4629 15.4264 12.3451C15.3907 12.1667 15.3585 11.9739 15.3264 11.774C15.2836 11.5027 15.2443 11.2101 15.2122 10.896C15.2122 10.8781 15.2086 10.8567 15.2051 10.8353C15.1944 10.6997 15.1801 10.5605 15.1658 10.4177C15.1337 10.0893 15.1087 9.74306 15.0873 9.38259C15.0837 9.28982 15.0766 9.20057 15.073 9.10776C15.0623 8.92574 15.0552 8.73655 15.048 8.54737C15.0409 8.36174 15.0338 8.1726 15.0338 7.97985C15.023 7.65862 15.0195 7.33026 15.0195 6.99829C15.0195 6.67705 15.0231 6.35938 15.0302 6.04888C15.0338 5.91684 15.0373 5.78474 15.041 5.65626C15.041 5.5956 15.0445 5.5349 15.0481 5.4778C15.155 2.42235 15.587 0.141602 16.1081 0.141602C16.133 0.141602 16.158 0.145164 16.183 0.159461C16.5613 0.316492 16.8826 1.67999 17.0611 3.63595C17.1253 4.36766 17.1718 5.18146 17.1896 6.04879C17.1967 6.35934 17.2003 6.67701 17.2003 6.99824Z" fill="#9F6B7C"/>
<path opacity="0.1" d="M14.5879 6.04883H13.8955V7.9798H14.5879V6.04883Z" fill="#040000"/>
<path d="M16.4407 7.01223C16.4407 7.4191 16.4264 7.73677 16.4086 7.97949C16.3694 8.47562 16.3087 8.6648 16.3087 8.6648C16.3087 8.68266 16.3015 8.69335 16.2872 8.69335C16.2872 8.69335 16.2873 8.69335 16.2837 8.69335L15.1951 8.56487L15.0487 8.54701L14.8203 8.52202C14.5919 8.52202 14.4062 8.28287 14.4062 7.99379V6.03423C14.4062 5.7451 14.5919 5.50595 14.8203 5.50595L15.0487 5.4774L15.1951 5.45954L15.2379 5.45598L16.2837 5.33105C16.2873 5.33105 16.2872 5.33105 16.2872 5.33462C16.3015 5.33462 16.3087 5.3453 16.3087 5.3596C16.3087 5.3596 16.3586 5.6273 16.3979 6.04848C16.4229 6.31623 16.4407 6.64459 16.4407 7.01223Z" fill="#F1EBEB"/>
<path opacity="0.1" d="M23.9999 6.90155V7.12641C23.9999 7.59756 23.618 7.97945 23.1433 7.97945H22.8435C22.8399 8.05796 22.8363 8.13291 22.8327 8.21148C22.8327 8.28643 22.8292 8.36138 22.822 8.43634C22.8113 8.6612 22.7971 8.87893 22.7828 9.09305C22.7721 9.1966 22.7649 9.3001 22.7543 9.4036C22.7471 9.49998 22.7364 9.59635 22.7257 9.68916C22.6829 10.1103 22.6258 10.4958 22.5651 10.8313C22.5508 10.9134 22.533 10.9955 22.5187 11.0705C22.3902 11.663 22.2367 12.077 22.0654 12.2484C22.0511 12.2626 22.0368 12.2733 22.0225 12.284C21.9833 12.3161 21.9369 12.334 21.8941 12.334H19.7168C19.7097 12.334 19.7026 12.3304 19.6954 12.3304C19.6954 12.3304 19.6918 12.3269 19.6883 12.3269C19.6847 12.3269 19.6811 12.3233 19.6776 12.3233C19.674 12.3233 19.6704 12.3269 19.6668 12.3269C19.6668 12.3269 19.6633 12.3304 19.6597 12.3304C19.6561 12.3304 19.6526 12.334 19.6454 12.334C19.624 12.334 19.6026 12.3269 19.5811 12.3161C19.5669 12.309 19.5526 12.3019 19.5383 12.2876C19.5026 12.259 19.4705 12.2162 19.4384 12.1627C19.4384 12.1662 19.4384 12.1662 19.4384 12.1698C19.4277 12.2126 19.4205 12.2519 19.4134 12.2911C19.3991 12.3768 19.3812 12.4589 19.3634 12.5374C19.3491 12.5945 19.3384 12.6517 19.3242 12.7088C19.2992 12.8194 19.2706 12.9229 19.2421 13.0229C19.2421 13.0229 19.2421 13.0264 19.2421 13.03C19.2135 13.1229 19.185 13.2085 19.16 13.287C19.1278 13.3691 19.0957 13.444 19.0636 13.5083C19.0351 13.5726 19.0029 13.6297 18.9708 13.6761C18.9529 13.7011 18.9387 13.7225 18.9208 13.7403C18.9065 13.7618 18.8887 13.776 18.8744 13.7903C18.8601 13.8046 18.8459 13.8153 18.8316 13.8224C18.8208 13.8295 18.8101 13.8367 18.7995 13.8403C18.7923 13.8438 18.7816 13.8474 18.7709 13.851C18.7567 13.8545 18.7388 13.8581 18.7209 13.8581H16.2581C16.2367 13.8581 16.2117 13.8474 16.1903 13.8367C16.1867 13.8367 16.1867 13.8331 16.1832 13.8331C16.1796 13.8331 16.1796 13.8367 16.1761 13.8367C16.1546 13.8474 16.1296 13.8581 16.1082 13.8581C16.0904 13.8581 16.0761 13.8545 16.0583 13.851C16.0511 13.8474 16.044 13.8474 16.0333 13.8403C16.019 13.8367 16.0083 13.8295 15.9976 13.8224C15.8762 13.7475 15.762 13.544 15.6549 13.2406C15.6014 13.0836 15.5479 12.8979 15.4979 12.6874C15.4979 12.6874 15.4979 12.6838 15.4979 12.6803C15.4729 12.5768 15.4479 12.4625 15.4265 12.3447C15.3909 12.1663 15.3587 11.9735 15.3266 11.7736C15.2874 11.5023 15.2481 11.2096 15.2124 10.8956C15.2124 10.8777 15.2088 10.8563 15.2052 10.8349C15.1945 10.6993 15.1802 10.5601 15.1659 10.4173C15.1338 10.0889 15.1089 9.74265 15.0874 9.38218C15.0839 9.28941 15.0767 9.20016 15.0732 9.10735C15.0625 8.92534 15.0553 8.73615 15.0482 8.54696L14.8198 8.52198C14.5914 8.52198 14.4057 8.28282 14.4057 7.99374V7.97945H12.7139L14.6448 6.04848L15.0411 5.65585L15.191 5.50238L15.2374 5.45598L17.0613 3.63563L19.3385 1.3584C19.3635 1.46907 19.3885 1.58682 19.4135 1.70818C19.417 1.72604 19.4206 1.74746 19.4242 1.76532C19.4277 1.78674 19.4313 1.80816 19.4384 1.82954C19.4384 1.8331 19.4384 1.8331 19.4384 1.83671C19.4706 1.78318 19.5027 1.74034 19.5384 1.71179C19.5526 1.69754 19.5669 1.69037 19.5812 1.68324C19.6026 1.67251 19.624 1.66538 19.6455 1.66538C19.6526 1.66538 19.6562 1.66538 19.6598 1.66895C19.6633 1.66895 19.6669 1.67251 19.6669 1.67251C19.6704 1.67251 19.674 1.67607 19.6776 1.67607C19.6812 1.67607 19.6847 1.67251 19.6883 1.67251C19.6919 1.67251 19.6954 1.66895 19.6954 1.66895C19.7026 1.66538 19.7097 1.66538 19.7169 1.66538H21.8941C21.9084 1.66538 21.9226 1.66895 21.9369 1.67251C21.9477 1.67251 21.9548 1.67607 21.9619 1.67963C22.0226 1.70105 22.0797 1.75459 22.1333 1.8331C22.1511 1.85452 22.1654 1.87951 22.1797 1.90449C22.2368 2.00443 22.2939 2.12935 22.3438 2.28282C22.3581 2.31849 22.3688 2.35416 22.3795 2.39349C22.4688 2.67901 22.5473 3.0324 22.6115 3.44645C22.6223 3.49998 22.6294 3.55351 22.6365 3.60704C22.6472 3.67126 22.6579 3.73909 22.6651 3.80691C22.69 3.96755 22.7079 4.13884 22.7257 4.31377C22.7328 4.37804 22.74 4.44582 22.7471 4.51365C22.7614 4.6493 22.7721 4.78848 22.7829 4.9277C22.7935 5.07048 22.8043 5.21682 22.8114 5.36316C22.8257 5.58802 22.8364 5.81644 22.8436 6.04848H23.1434C23.618 6.04848 23.9999 6.43041 23.9999 6.90155Z" fill="#040000"/>
</svg>
