<svg width="15" height="14" viewBox="0 0 15 14" fill="none" xmlns="http://www.w3.org/2000/svg">
<path d="M12.975 4.69375L9.7875 1.54375L10.8375 0.49375C11.125 0.20625 11.4783 0.0625 11.8973 0.0625C12.3158 0.0625 12.6687 0.20625 12.9562 0.49375L14.0062 1.54375C14.2937 1.83125 14.4437 2.17825 14.4562 2.58475C14.4688 2.99075 14.3313 3.3375 14.0438 3.625L12.975 4.69375ZM1.5 13.75C1.2875 13.75 1.1095 13.678 0.966 13.534C0.822 13.3905 0.75 13.2125 0.75 13V10.8812C0.75 10.7812 0.76875 10.6845 0.80625 10.591C0.84375 10.497 0.9 10.4125 0.975 10.3375L8.7 2.6125L11.8875 5.8L4.1625 13.525C4.0875 13.6 4.00325 13.6562 3.90975 13.6937C3.81575 13.7312 3.71875 13.75 3.61875 13.75H1.5Z" fill="#D02049"/>
</svg>
