<svg width="13" height="12" viewBox="0 0 13 12" fill="none" xmlns="http://www.w3.org/2000/svg">
<path d="M0.5 2.12423V10.6169C0.500478 10.9835 0.646243 11.3351 0.905597 11.5944C1.16495 11.8537 1.51669 11.9994 1.88345 11.9999H10.3793C10.746 11.9994 11.0976 11.8537 11.357 11.5944C11.6164 11.3352 11.7623 10.9836 11.7628 10.6169V4.67261C11.7628 4.48279 11.6089 4.32895 11.419 4.32895C11.2291 4.32895 11.0752 4.48278 11.0752 4.67261V10.6169C11.075 10.8013 11.0017 10.9783 10.8713 11.1087C10.7408 11.2391 10.5638 11.3124 10.3794 11.3127H1.88348C1.699 11.3124 1.52201 11.2391 1.39156 11.1087C1.2611 10.9782 1.1878 10.8013 1.18748 10.6169V2.12423C1.1878 1.93982 1.26108 1.76289 1.39156 1.63249C1.52203 1.50206 1.69902 1.42881 1.88348 1.42849H7.9018C8.09169 1.42849 8.24558 1.27466 8.24558 1.08499C8.24558 0.895169 8.09169 0.741333 7.9018 0.741333H1.88348C1.51675 0.741811 1.16501 0.887521 0.905629 1.14678C0.646275 1.40604 0.50051 1.75764 0.500032 2.12426L0.5 2.12423Z" fill="#29384E"/>
<path d="M12.3745 0.672788L11.9818 0.280081C11.802 0.100769 11.5584 0.00012207 11.3045 0.00012207C11.0504 0.00012207 10.8068 0.100769 10.6269 0.280081L3.91858 6.98594C3.88082 7.02353 3.85247 7.06955 3.83558 7.12019L3.20471 9.01189C3.16345 9.13531 3.19563 9.27147 3.28771 9.36351C3.37979 9.45572 3.516 9.48773 3.63946 9.44648L5.53187 8.81601C5.58253 8.79913 5.62857 8.77078 5.66632 8.73288L6.05854 8.34097L12.375 2.02688L12.3748 2.02704C12.5542 1.84725 12.655 1.60375 12.655 1.34977C12.655 1.09593 12.5542 0.852284 12.3748 0.672661L12.3745 0.672788ZM11.8885 1.54134L5.23761 8.18972L4.0742 8.57733L4.46196 7.41452L11.1132 0.76573C11.2192 0.660627 11.3901 0.660627 11.496 0.76573L11.8887 1.15828V1.15844C11.9942 1.26418 11.9944 1.43537 11.8887 1.54111L11.8885 1.54134Z" fill="#29384E"/>
</svg>
