<svg width="19" height="18" viewBox="0 0 19 18" fill="none" xmlns="http://www.w3.org/2000/svg">
<path d="M14.975 6.69375L11.7875 3.54375L12.8375 2.49375C13.125 2.20625 13.4783 2.0625 13.8973 2.0625C14.3158 2.0625 14.6687 2.20625 14.9562 2.49375L16.0062 3.54375C16.2937 3.83125 16.4437 4.17825 16.4562 4.58475C16.4688 4.99075 16.3313 5.3375 16.0438 5.625L14.975 6.69375ZM3.5 15.75C3.2875 15.75 3.1095 15.678 2.966 15.534C2.822 15.3905 2.75 15.2125 2.75 15V12.8812C2.75 12.7812 2.76875 12.6845 2.80625 12.591C2.84375 12.497 2.9 12.4125 2.975 12.3375L10.7 4.6125L13.8875 7.8L6.1625 15.525C6.0875 15.6 6.00325 15.6562 5.90975 15.6937C5.81575 15.7312 5.71875 15.75 5.61875 15.75H3.5Z" fill="#097D4F"/>
</svg>
