<svg width="15" height="14" viewBox="0 0 15 14" fill="none" xmlns="http://www.w3.org/2000/svg">
<path d="M12.6698 4.69375L9.48232 1.54375L10.5323 0.49375C10.8198 0.20625 11.1731 0.0625 11.5921 0.0625C12.0106 0.0625 12.3636 0.20625 12.6511 0.49375L13.7011 1.54375C13.9886 1.83125 14.1386 2.17825 14.1511 2.58475C14.1636 2.99075 14.0261 3.3375 13.7386 3.625L12.6698 4.69375ZM1.19482 13.75C0.982324 13.75 0.804324 13.678 0.660824 13.534C0.516824 13.3905 0.444824 13.2125 0.444824 13V10.8812C0.444824 10.7812 0.463574 10.6845 0.501074 10.591C0.538574 10.497 0.594824 10.4125 0.669824 10.3375L8.39482 2.6125L11.5823 5.8L3.85732 13.525C3.78232 13.6 3.69807 13.6562 3.60457 13.6937C3.51057 13.7312 3.41357 13.75 3.31357 13.75H1.19482Z" fill="#29384E"/>
</svg>
