<svg width="24" height="18" viewBox="0 0 24 18" fill="none" xmlns="http://www.w3.org/2000/svg">
<path d="M22.2734 3.35028V14.414C22.2734 15.0428 22.0237 15.6458 21.579 16.0904C21.1344 16.535 20.5314 16.7848 19.9026 16.7848H4.09735C3.46858 16.7848 2.86556 16.535 2.42095 16.0904C1.97634 15.6458 1.72656 15.0428 1.72656 14.414V3.35028M22.2734 3.35028C22.2734 2.72151 22.0237 2.11849 21.579 1.67388C21.1344 1.22927 20.5314 0.979492 19.9026 0.979492H4.09735C3.46858 0.979492 2.86556 1.22927 2.42095 1.67388C1.97634 2.11849 1.72656 2.72151 1.72656 3.35028M22.2734 3.35028V3.60633C22.2735 4.0111 22.1699 4.40914 21.9725 4.76253C21.7752 5.11593 21.4906 5.41291 21.146 5.62519L13.2433 10.488C12.8695 10.7182 12.4391 10.8401 12 10.8401C11.5609 10.8401 11.1305 10.7182 10.7566 10.488L2.85401 5.62625C2.50937 5.41397 2.22482 5.11698 2.02746 4.76359C1.83011 4.41019 1.72652 4.01215 1.72656 3.60738V3.35028" stroke="#D02049" stroke-width="1.58053" stroke-linecap="round" stroke-linejoin="round"/>
</svg>
