<svg width="15" height="17" viewBox="0 0 15 17" fill="none" xmlns="http://www.w3.org/2000/svg">
<path fill-rule="evenodd" clip-rule="evenodd" d="M8.5243 0.000349662C7.63949 2.37156 8.09993 3.66298 9.0905 4.6887C10.1697 5.82142 11.8505 6.67042 13.0362 8.33401C14.6108 10.5453 14.8764 15.411 9.197 16.6853C11.5858 15.4288 12.0986 11.7845 9.51576 9.50153C10.1883 11.7131 8.94955 13.1287 7.41022 12.6155C5.90638 12.1026 4.91554 13.1818 4.95042 14.4206C4.96817 15.2699 5.30437 15.9951 6.17115 16.4023C2.47333 15.7477 0.986816 12.6862 0.986816 10.351C0.986816 7.27221 3.72941 6.84757 2.34908 4.26445C3.99445 4.4057 4.56066 5.48503 4.40138 7.25449C4.29502 8.42256 5.51635 9.21847 6.41875 8.68776C7.14397 8.24565 7.12653 7.39634 6.48961 6.75929C5.12734 5.41446 4.59601 2.31796 8.52446 0L8.5237 0.000758589L8.5243 0.000349662Z" fill="#FFC65A"/>
</svg>
