<svg width="24" height="25" viewBox="0 0 24 25" fill="none" xmlns="http://www.w3.org/2000/svg">
<g clip-path="url(#clip0_2723_8132)">
<path d="M12.0002 0.381836C11.7774 0.381836 11.5637 0.470336 11.4062 0.627866C11.2487 0.785397 11.1602 0.999054 11.1602 1.22184V20.4218C11.1602 20.6446 11.2487 20.8583 11.4062 21.0158C11.5637 21.1733 11.7774 21.2618 12.0002 21.2618C12.2229 21.2618 12.4366 21.1733 12.5941 21.0158C12.7517 20.8583 12.8402 20.6446 12.8402 20.4218V11.6618H23.1602C23.3829 11.6618 23.5966 11.5733 23.7541 11.4158C23.9117 11.2583 24.0002 11.0446 24.0002 10.8218V1.22184C24.0002 0.999054 23.9117 0.785397 23.7541 0.627866C23.5966 0.470336 23.3829 0.381836 23.1602 0.381836H12.1202C12.0998 0.381898 12.0795 0.382698 12.0592 0.384236C12.0396 0.382744 12.0199 0.381943 12.0002 0.381836ZM12.9602 2.06184H22.3202V9.98184H12.9602V2.06184Z" fill="#29384E"/>
<path d="M9.12077 18.8115C6.57821 19.171 4.7998 20.0307 4.7998 21.2958C4.7998 22.9998 7.77124 24.3814 11.9998 24.3814C16.2284 24.3814 19.1998 23 19.1998 21.2958C19.1998 20.0305 17.4214 19.171 14.8791 18.8118L14.5268 19.4115C16.4432 19.6772 17.7598 20.2362 17.7598 20.8844C17.7598 21.7933 15.181 22.5301 11.9998 22.5301C8.8186 22.5301 6.2398 21.7933 6.2398 20.8844C6.23956 20.2383 7.5478 19.6801 9.46996 19.4132C9.3538 19.2126 9.23716 19.0124 9.12077 18.8115Z" fill="#D02049"/>
</g>
<defs>
<clipPath id="clip0_2723_8132">
<rect width="24" height="24" fill="white" transform="translate(0 0.381836)"/>
</clipPath>
</defs>
</svg>
