<svg width="20" height="20" viewBox="0 0 20 20" fill="none" xmlns="http://www.w3.org/2000/svg">
<g id="fluent:food-egg-20-regular">
<path id="Vector" d="M10.0641 9.5801C10.1299 9.59036 10.1971 9.58737 10.2617 9.57131C10.3264 9.55524 10.3871 9.52643 10.4405 9.48656C10.4938 9.44669 10.5387 9.39656 10.5724 9.33913C10.6061 9.28169 10.628 9.2181 10.6368 9.15208C10.6455 9.08607 10.6411 9.01896 10.6236 8.95471C10.6061 8.89045 10.5759 8.83033 10.5349 8.77789C10.4938 8.72545 10.4427 8.68173 10.3845 8.64931C10.3264 8.61689 10.2623 8.59642 10.1961 8.5891C9.2561 8.4641 8.4161 9.1781 8.4161 10.2201C8.4161 10.3527 8.46878 10.4799 8.56255 10.5737C8.65632 10.6674 8.78349 10.7201 8.9161 10.7201C9.04871 10.7201 9.17589 10.6674 9.26966 10.5737C9.36342 10.4799 9.4161 10.3527 9.4161 10.2201C9.4161 9.7631 9.7441 9.5371 10.0641 9.5801ZM10.4081 14.9651C11.6003 14.9651 12.7436 14.4915 13.5865 13.6485C14.4295 12.8056 14.9031 11.6622 14.9031 10.4701C14.9031 9.27795 14.4295 8.13463 13.5865 7.29165C12.7436 6.44868 11.6003 5.9751 10.4081 5.9751C9.21595 5.9751 8.07263 6.44868 7.22966 7.29165C6.38668 8.13463 5.9131 9.27795 5.9131 10.4701C5.9131 11.6622 6.38668 12.8056 7.22966 13.6485C8.07263 14.4915 9.21595 14.9651 10.4081 14.9651ZM10.4081 13.9651C9.48117 13.9651 8.5922 13.5969 7.93676 12.9414C7.28133 12.286 6.9131 11.397 6.9131 10.4701C6.9131 9.54317 7.28133 8.6542 7.93676 7.99876C8.5922 7.34332 9.48117 6.9751 10.4081 6.9751C11.335 6.9751 12.224 7.34332 12.8794 7.99876C13.5349 8.6542 13.9031 9.54317 13.9031 10.4701C13.9031 11.397 13.5349 12.286 12.8794 12.9414C12.224 13.5969 11.335 13.9651 10.4081 13.9651ZM11.6261 2.0751C12.6711 2.1431 13.6521 2.4541 14.3531 2.8961C15.9601 3.9111 16.6531 5.0271 17.0531 5.7261C17.4421 6.4041 18.2091 7.9091 18.0991 9.5501C18.0708 9.99218 18.0127 10.4318 17.9251 10.8661L17.8851 11.0801C17.8291 11.4041 17.7941 11.7361 17.8531 12.4581C17.9231 13.3091 17.7511 14.2411 17.3911 15.0681C17.0311 15.8931 16.4661 16.6551 15.7131 17.1251C14.1481 18.1031 12.2631 18.3151 10.4951 17.6081C9.6861 17.2851 9.4131 17.2081 9.1071 17.1901C8.8918 17.1817 8.67621 17.1837 8.4611 17.1961H8.4541C8.1641 17.2081 7.7921 17.2221 7.2751 17.2221C5.0021 17.2221 3.4901 15.8621 2.7181 14.3781C1.5871 12.2021 1.6181 8.9081 4.1051 6.9441C4.8651 6.3451 5.0921 6.1461 5.3481 5.7181C5.7691 5.0161 6.1691 4.4661 6.6531 3.9921C7.1381 3.5161 7.6891 3.1331 8.3971 2.7441C9.4261 2.1781 10.5771 2.0061 11.6261 2.0741V2.0751ZM11.5611 3.0731C10.6611 3.0131 9.7071 3.1651 8.8781 3.6211C8.2241 3.9811 7.7541 4.3131 7.3531 4.7061C6.9521 5.1001 6.6021 5.5721 6.2061 6.2321C5.8441 6.8351 5.4781 7.1351 4.7251 7.7291C2.7151 9.3161 2.6291 12.0391 3.6051 13.9171C4.2501 15.1571 5.4631 16.2221 7.2751 16.2221C7.7731 16.2221 8.1311 16.2081 8.4181 16.1971H8.4371C8.7131 16.1871 8.9471 16.1771 9.1701 16.1921C9.6531 16.2221 10.0601 16.3571 10.8661 16.6801C12.3271 17.2641 13.8781 17.0931 15.1831 16.2771C15.7211 15.9411 16.1731 15.3621 16.4741 14.6681C16.7761 13.9761 16.9121 13.2101 16.8571 12.5401C16.7911 11.7411 16.8271 11.3241 16.9001 10.9081L16.9451 10.6671C17.0021 10.3641 17.0631 10.0421 17.1011 9.4831C17.1911 8.1561 16.5581 6.8731 16.1861 6.2231C15.8251 5.5951 15.2321 4.6331 13.8191 3.7421C13.2791 3.4011 12.4651 3.1331 11.5611 3.0731Z" fill="#29384E"/>
</g>
</svg>
