<svg width="12" height="15" viewBox="0 0 12 15" fill="none" xmlns="http://www.w3.org/2000/svg">
<path d="M2.59543 10.1723C2.24728 10.2249 1.67419 10.3229 1.29293 9.8768C0.911683 9.43075 0.581988 8.35367 0.437086 7.39105C0.223259 5.97229 0.435458 4.77657 1.03406 4.02437C1.38682 3.5814 1.84975 3.32479 2.37292 3.28393C2.82092 3.2484 3.49035 3.42917 4.13672 4.49253C4.54158 5.15882 4.84956 6.04393 4.98171 6.92065C5.14127 7.97898 5.29675 9.10838 4.75269 9.5133C4.44579 9.74192 4.22545 9.82112 3.70472 9.949C3.27653 10.0539 2.94385 10.1194 2.59543 10.1723ZM1.9762 11.0826L4.93097 10.4541C5.18061 10.4009 5.38087 10.5425 5.47368 10.9668C5.77813 12.3592 5.3418 14.0253 3.97526 14.0253C2.68118 14.0253 1.81882 12.5042 1.67798 11.6865C1.61367 11.3157 1.70539 11.14 1.9762 11.0826ZM8.29521 7.26288C7.77448 7.13556 7.55414 7.05581 7.24724 6.82718C6.70318 6.42226 6.85866 5.29286 7.01822 4.23453C7.15037 3.35781 7.45835 2.47158 7.86321 1.80642C8.50903 0.74305 9.17846 0.562277 9.62701 0.597816C10.1496 0.638952 10.6128 0.894999 10.9656 1.33797C11.5647 2.09017 11.7769 3.28589 11.5626 4.70465C11.4174 5.66727 11.0888 6.74071 10.7054 7.19041C10.3219 7.6401 9.7521 7.53852 9.40287 7.48591C9.05364 7.4333 8.72313 7.36754 8.29521 7.26288ZM10.0235 8.39621L7.06869 7.7677C6.81905 7.71453 6.61879 7.85613 6.52598 8.28036C6.2218 9.67281 6.65813 11.3389 8.02467 11.3389C9.31875 11.3389 10.1811 9.81776 10.3219 9.00009C10.386 8.62931 10.2943 8.45357 10.0235 8.39621Z" fill="#BA68C8"/>
</svg>
