<svg width="13" height="19" viewBox="0 0 13 19" fill="none" xmlns="http://www.w3.org/2000/svg">
<path d="M8.32157 0.477123C8.32186 0.564944 8.28718 0.649225 8.22519 0.711215C8.16305 0.773353 8.07877 0.80804 7.99095 0.807746H5.00885C4.82612 0.807746 4.67822 0.659702 4.67822 0.477123C4.67822 0.294544 4.82612 0.146501 5.00885 0.146501H7.9911H7.99095C8.07892 0.145615 8.16349 0.180153 8.22578 0.242442C8.28792 0.30458 8.32245 0.389155 8.32157 0.477123Z" fill="#92E3A9"/>
<path d="M12.0779 4.17792C11.9903 4.17806 11.9061 4.14323 11.8442 4.08109L10.5543 2.79091C10.4253 2.66176 10.4253 2.45247 10.5543 2.32331C10.6834 2.19431 10.8927 2.19431 11.0219 2.32331L12.3117 3.6135V3.61364C12.4062 3.70811 12.4345 3.85039 12.3833 3.97379C12.3323 4.09732 12.2117 4.17792 12.0779 4.17792Z" fill="#92E3A9"/>
<path d="M0.922864 4.1779C0.789138 4.1779 0.668697 4.09731 0.617483 3.97392C0.566264 3.85038 0.594605 3.70809 0.689067 3.61363L1.97895 2.32344V2.3233C2.1081 2.19429 2.31739 2.19429 2.44654 2.32344C2.57569 2.45245 2.57569 2.66174 2.44654 2.79089L1.15666 4.08107C1.09467 4.14321 1.01054 4.17805 0.922864 4.1779Z" fill="#92E3A9"/>
<path d="M6.83041 2.06727V1.4689L6.16917 1.46875V2.06727C4.29539 2.17502 2.59297 3.19331 1.61187 4.79341C0.630772 6.39355 0.495425 8.37256 1.24936 10.0913C1.34486 9.88231 1.47696 9.69191 1.63946 9.52925C2.14586 9.05428 2.84829 8.84926 3.53066 8.97724C4.24136 9.10314 4.89479 9.44895 5.39869 9.96571C5.70068 10.2643 5.9479 10.6134 6.12931 10.9973C6.27809 10.6997 6.55587 10.4219 7.38243 9.60202C7.62375 9.36394 7.91807 9.07303 8.27511 8.71259V8.71274C8.48972 8.49414 8.78211 8.36928 9.08836 8.36558C9.36954 8.36898 9.63803 8.48293 9.83565 8.68292C9.99564 8.8441 10.1019 9.05074 10.1397 9.27479C10.3642 9.3111 10.5713 9.41767 10.7316 9.57885C10.8917 9.74002 10.9978 9.94681 11.0358 10.1707C11.2393 10.2044 11.4288 10.2962 11.5813 10.4352C12.0111 9.61765 12.2347 8.7074 12.2327 7.78359C12.2321 6.32118 11.6722 4.91439 10.6678 3.85164C9.66326 2.78877 8.29029 2.15027 6.83033 2.0673L6.83041 2.06727ZM2.06907 8.23951C1.88472 8.23951 1.71867 8.12852 1.64811 7.95819C1.5777 7.78801 1.61667 7.592 1.74685 7.4618C1.87718 7.33147 2.07319 7.29251 2.24339 7.36306C2.41357 7.43346 2.52456 7.59966 2.52456 7.78387C2.52456 7.90476 2.4766 8.02062 2.39114 8.10608C2.30583 8.19154 2.18996 8.23951 2.06907 8.23951ZM3.68897 4.97315C3.55864 5.10348 3.36263 5.14245 3.19243 5.0719C3.0221 5.00135 2.91111 4.8353 2.91111 4.65093C2.91111 4.46673 3.0221 4.30053 3.19243 4.22996C3.36262 4.15956 3.55863 4.19853 3.68897 4.32886C3.86683 4.50671 3.86683 4.79515 3.68897 4.97315ZM6.04406 3.35326C6.04406 3.16905 6.15506 3.00286 6.32539 2.93229C6.49557 2.86188 6.69158 2.90085 6.82193 3.03118C6.95211 3.16136 6.99108 3.35737 6.92067 3.52757C6.85012 3.6979 6.68392 3.80889 6.4997 3.80889C6.37882 3.80889 6.26296 3.76078 6.1775 3.67546C6.09218 3.59 6.04406 3.47414 6.04406 3.35326ZM9.955 4.97315C9.87294 5.05433 9.76298 5.10097 9.64755 5.10363L6.73366 8.01768C6.67181 8.08026 6.58739 8.11569 6.49942 8.11598C6.41145 8.11628 6.32687 8.0813 6.26459 8.01916C6.20245 7.95687 6.16747 7.8723 6.16776 7.78433C6.16806 7.69621 6.20348 7.61193 6.26606 7.55009L9.18011 4.63604V4.63619C9.18498 4.48564 9.26425 4.34734 9.39148 4.2669C9.51871 4.18631 9.67752 4.1742 9.81569 4.23413C9.9537 4.2942 10.053 4.41877 10.0809 4.56682C10.1088 4.71471 10.0617 4.86688 9.955 4.97315ZM10.9305 8.23951C10.7463 8.23951 10.5801 8.12852 10.5095 7.95819C10.4391 7.78801 10.4781 7.592 10.6084 7.4618C10.7386 7.33147 10.9346 7.29251 11.1048 7.36306C11.2751 7.43346 11.3861 7.59966 11.3861 7.78387C11.3861 7.90476 11.338 8.02062 11.2527 8.10608C11.1672 8.19154 11.0514 8.23951 10.9305 8.23951Z" fill="#92E3A9"/>
<path d="M10.5343 10.9733L9.34244 12.1652C9.30348 12.2076 9.24901 12.2322 9.19145 12.2334C9.13388 12.2346 9.07839 12.2123 9.03765 12.1716C8.99706 12.131 8.97462 12.0753 8.97581 12.0179C8.97699 11.9603 9.00164 11.9057 9.044 11.8668L10.2359 10.6749C10.3277 10.5987 10.3832 10.4875 10.3888 10.3683C10.3942 10.2492 10.3494 10.1332 10.2649 10.0488C10.1807 9.96451 10.0646 9.91964 9.94554 9.9251C9.82643 9.93071 9.71513 9.98621 9.63897 10.078L8.44711 11.2699H8.44696C8.408 11.3122 8.35353 11.3367 8.29597 11.3379C8.2384 11.3391 8.18291 11.3168 8.14232 11.2762C8.10158 11.2355 8.07929 11.18 8.08047 11.1224C8.08165 11.0649 8.1063 11.0104 8.14852 10.9714L9.34053 9.77942C9.43234 9.70341 9.48769 9.59197 9.4933 9.47286C9.49876 9.35374 9.45389 9.23773 9.36961 9.15345C9.28519 9.06917 9.16932 9.02415 9.05006 9.02977C8.93095 9.03523 8.81966 9.09072 8.7435 9.18253C6.80095 11.1251 6.76256 11.095 6.64418 11.5127C6.47105 12.1513 6.85702 12.3742 6.58248 12.8C6.47385 12.9708 6.3413 13.125 6.18883 13.258C6.13614 13.2108 6.08389 13.1639 6.0309 13.1166H6.03105C5.82972 12.9389 5.72611 12.6754 5.75238 12.4083C5.77969 11.6623 5.48036 10.9415 4.93263 10.4343C4.03314 9.53483 2.76764 9.33986 2.10904 9.99861C1.57974 10.5279 1.60158 11.4492 2.09708 12.2551C2.58474 13.068 3.58295 13.7343 4.52067 13.64C4.78739 13.6157 5.04982 13.7199 5.22707 13.9205C5.25438 13.951 5.2811 13.9802 5.30825 14.0107H5.3084C4.26148 14.8644 3.27124 15.7852 2.34432 16.7677C1.61401 17.7089 2.69251 18.664 3.53827 17.9616C3.57605 17.9303 4.81428 16.6946 4.79183 16.6722C5.27802 16.1395 5.80732 15.5442 6.24657 15.0465C6.72732 15.5727 7.18384 16.0661 7.57719 16.4853C8.38897 17.3569 8.94218 17.9339 8.94218 17.9339V17.934C9.08609 18.09 9.28757 18.1807 9.49982 18.1849C9.71207 18.1892 9.91709 18.1069 10.0672 17.9566C10.2173 17.8065 10.2998 17.6016 10.2955 17.3894C10.2913 17.177 10.2006 16.9757 10.0445 16.8316C10.0445 16.8316 8.74001 15.5762 7.09899 14.0803L7.09914 14.0805C7.22859 13.9487 7.37013 13.8291 7.52188 13.7235C7.95169 13.4448 8.16851 13.8368 8.81131 13.6597C9.2271 13.5437 9.19978 13.5021 11.1314 11.5704C11.141 11.5614 11.1497 11.5514 11.1572 11.5406L11.1592 11.5385C11.2408 11.4568 11.2854 11.3452 11.2824 11.2298C11.2796 11.1143 11.2294 11.0051 11.1438 10.9276C11.0581 10.8501 10.9444 10.8113 10.8293 10.8199C10.7141 10.8286 10.6076 10.8841 10.5344 10.9734L10.5343 10.9733Z" fill="#92E3A9"/>
</svg>
