<svg width="22" height="17" viewBox="0 0 22 17" fill="none" xmlns="http://www.w3.org/2000/svg">
<path d="M1.09155 4.75H20.5916M1.09155 5.5H20.5916M4.09155 10.75H10.0916M4.09155 13H7.09155M3.34155 16H18.3416C18.9383 16 19.5106 15.7629 19.9325 15.341C20.3545 14.919 20.5916 14.3467 20.5916 13.75V3.25C20.5916 2.65326 20.3545 2.08097 19.9325 1.65901C19.5106 1.23705 18.9383 1 18.3416 1H3.34155C2.74482 1 2.17252 1.23705 1.75056 1.65901C1.32861 2.08097 1.09155 2.65326 1.09155 3.25V13.75C1.09155 14.3467 1.32861 14.919 1.75056 15.341C2.17252 15.7629 2.74482 16 3.34155 16Z" stroke="#D02049" stroke-width="1.5" stroke-linecap="round" stroke-linejoin="round"/>
</svg>
