<svg width="176" height="67" viewBox="0 0 176 67" fill="none" xmlns="http://www.w3.org/2000/svg">
<path d="M11.8109 30.116H0V19.843H25.9232C25.9232 19.843 31.1241 44.746 5.75972 54.3029C1.00954 45.6131 0 43.8758 0 43.8758C0 43.8758 10.6571 41.1232 11.8109 30.116Z" fill="white"/>
<path d="M47.8263 61.1586H33.6269C32.6023 51.8313 24.7274 48.4684 22.447 47.6889C25.184 44.7491 27.2565 41.2487 28.5222 37.4279C42.3761 43.0207 46.6816 53.3269 47.8263 61.1526" fill="white"/>
<path d="M41.0601 5.84143H28.5973V18.3745H41.0601V5.84143Z" fill="white"/>
<path d="M94.145 35.202V42H87.2346C86.9725 45.3709 85.4743 48.0676 82.7401 50.0901C80.4929 51.7381 77.8711 52.5621 74.8747 52.5621C72.5151 52.5621 70.2116 51.9254 67.9644 50.652V44.5282C69.9869 45.6893 72.0095 46.2698 74.032 46.2698C75.6051 46.2698 76.9909 45.8391 78.1894 44.9776C79.4254 44.1162 80.0996 43.0862 80.212 41.8876C79.9123 41.8502 79.4441 41.8127 78.8074 41.7753C78.1707 41.7004 77.6838 41.6442 77.3467 41.6067C73.4889 41.1947 70.5113 39.6778 68.4138 37.056C66.6535 34.8462 65.7733 32.1682 65.7733 29.0221C65.7733 24.9021 66.8969 21.6436 69.1442 19.2465C71.1293 17.149 73.7511 16.1003 77.0096 16.1003C80.343 16.1003 82.9461 17.1678 84.8188 19.3027C86.4294 21.1379 87.2346 23.535 87.2346 26.4939V35.202H94.145ZM80.212 26.3815C80.212 23.9095 79.1445 22.6736 77.0096 22.6736C74.1631 22.6736 72.7398 24.7148 72.7398 28.7973C72.7398 32.4304 74.3878 34.4529 77.6838 34.8649C78.2081 34.9773 79.0509 35.0709 80.212 35.1459V26.3815ZM99.7719 26.4939C99.7719 23.123 100.821 20.4825 102.918 18.5723C104.753 16.9243 107.113 16.1003 109.997 16.1003C113.705 16.1003 116.589 17.4674 118.649 20.2016C120.409 22.4863 121.289 25.4264 121.289 29.0221C121.289 33.1795 120.185 36.4568 117.975 38.8538C115.99 40.9513 113.461 42 110.39 42C107.394 42 104.941 41.3445 103.03 40.0336C101.233 41.3445 99.0603 42 96.5134 42H90.7829V35.202H95.8392C97.2625 35.202 98.2737 34.9024 98.873 34.3031C99.4723 33.6664 99.7719 32.6177 99.7719 31.157V26.4939ZM106.851 32.0559C106.851 34.1533 107.956 35.202 110.165 35.202C112.937 35.202 114.323 33.0671 114.323 28.7973C114.323 24.7148 112.881 22.6736 109.997 22.6736C107.899 22.6736 106.851 23.9095 106.851 26.3815V32.0559ZM157.239 35.202V42H150.329C150.067 45.3709 148.569 48.0676 145.835 50.0901C143.587 51.7381 140.966 52.5621 137.969 52.5621C135.61 52.5621 133.306 51.9254 131.059 50.652V44.5282C133.081 45.6893 135.104 46.2698 137.126 46.2698C138.7 46.2698 140.085 45.8391 141.284 44.9776C142.52 44.1162 143.194 43.0862 143.306 41.8876C143.007 41.8502 142.539 41.8127 141.902 41.7753C141.265 41.7004 140.778 41.6442 140.441 41.6067C136.583 41.1947 133.606 39.6778 131.508 37.056C129.748 34.8462 128.868 32.1682 128.868 29.0221C128.868 24.9021 129.991 21.6436 132.239 19.2465C134.224 17.149 136.846 16.1003 140.104 16.1003C143.438 16.1003 146.041 17.1678 147.913 19.3027C149.524 21.1379 150.329 23.535 150.329 26.4939V35.202H157.239ZM143.306 26.3815C143.306 23.9095 142.239 22.6736 140.104 22.6736C137.258 22.6736 135.834 24.7148 135.834 28.7973C135.834 32.4304 137.482 34.4529 140.778 34.8649C141.303 34.9773 142.145 35.0709 143.306 35.1459V26.3815ZM157.922 11.3811C156.799 11.3811 155.9 11.044 155.226 10.3698C154.552 9.69562 154.214 8.77799 154.214 7.6169C154.214 5.18237 155.45 3.9651 157.922 3.9651C159.046 3.9651 159.926 4.30219 160.563 4.97637C161.237 5.6131 161.574 6.49327 161.574 7.6169C161.574 10.1263 160.357 11.3811 157.922 11.3811ZM166.574 11.3811C165.451 11.3811 164.552 11.044 163.878 10.3698C163.203 9.69562 162.866 8.77799 162.866 7.6169C162.866 5.18237 164.102 3.9651 166.574 3.9651C167.698 3.9651 168.578 4.30219 169.215 4.97637C169.889 5.6131 170.226 6.49327 170.226 7.6169C170.226 10.1263 169.009 11.3811 166.574 11.3811ZM153.877 42V35.202H158.934C160.357 35.202 161.368 34.9024 161.967 34.3031C162.567 33.6664 162.866 32.6177 162.866 31.157V20.7634L169.945 17.0554V31.4941C169.945 34.9024 168.897 37.5617 166.799 39.4718C164.964 41.1573 162.567 42 159.608 42H153.877Z" fill="white"/>
</svg>
