<svg width="15" height="14" viewBox="0 0 15 14" fill="none" xmlns="http://www.w3.org/2000/svg">
<path d="M14.2818 0.413117C14.2058 0.337559 14.1099 0.285245 14.0053 0.262326C13.9007 0.239408 13.7917 0.246838 13.6911 0.283742L1.31614 4.78374C1.20941 4.82422 1.11753 4.89621 1.05269 4.99015C0.987851 5.08409 0.953125 5.19554 0.953125 5.30968C0.953125 5.42382 0.987851 5.53527 1.05269 5.62921C1.11753 5.72315 1.20941 5.79514 1.31614 5.83562L6.71614 7.99562L8.87614 13.3956C8.91672 13.4977 8.98628 13.5856 9.07624 13.6486C9.1662 13.7115 9.27262 13.7468 9.38239 13.75C9.49606 13.7477 9.60636 13.7109 9.69874 13.6447C9.79112 13.5784 9.86125 13.4857 9.89989 13.3787L14.3999 1.00374C14.4382 0.904223 14.4475 0.79586 14.4265 0.691287C14.4056 0.586714 14.3554 0.490242 14.2818 0.413117ZM9.38239 11.6125L7.81301 7.67499L10.5074 4.98062L9.71426 4.18749L6.99739 6.90437L3.08239 5.31249L12.943 1.75187L9.38239 11.6125Z" fill="#FF725E"/>
</svg>
