<svg width="20" height="25" viewBox="0 0 20 25" fill="none" xmlns="http://www.w3.org/2000/svg">
<path d="M10 24.6875C11.375 24.6875 12.5 23.5625 12.5 22.1875H7.5C7.5 23.5625 8.625 24.6875 10 24.6875ZM17.5 17.1875L17.5 10.9375C17.5 7.1 15.4625 3.8875 11.875 3.0375V2.1875C11.875 1.15 11.0375 0.3125 10 0.3125C8.9625 0.3125 8.125 1.15 8.125 2.1875V3.0375C4.55 3.8875 2.5 7.0875 2.5 10.9375L2.5 17.1875L0 19.6875L0 20.9375L20 20.9375V19.6875L17.5 17.1875ZM15 18.4375L5 18.4375L5 10.9375C5 7.8375 6.8875 5.3125 10 5.3125C13.1125 5.3125 15 7.8375 15 10.9375V18.4375Z" fill="white"/>
</svg>
