<svg width="21" height="21" viewBox="0 0 21 21" fill="none" xmlns="http://www.w3.org/2000/svg">
<path fill-rule="evenodd" clip-rule="evenodd" d="M10.8904 0.5C5.37039 0.5 0.900391 4.98 0.900391 10.5C0.900391 16.02 5.37039 20.5 10.8904 20.5C16.4204 20.5 20.9004 16.02 20.9004 10.5C20.9004 4.98 16.4204 0.5 10.8904 0.5ZM10.9004 18.5C6.48039 18.5 2.90039 14.92 2.90039 10.5C2.90039 6.08 6.48039 2.5 10.9004 2.5C15.3204 2.5 18.9004 6.08 18.9004 10.5C18.9004 14.92 15.3204 18.5 10.9004 18.5ZM9.90039 11.57L15.3904 14.86L16.4104 13.14L11.9004 10.43V4.92H9.90039V11.57Z" fill="#FFA700"/>
</svg>
