<svg width="21" height="21" viewBox="0 0 21 21" fill="none" xmlns="http://www.w3.org/2000/svg">
<path d="M1.2583 5.47468C1.2583 13.4047 7.68729 19.8337 15.6173 19.8337H17.7711C18.3424 19.8337 18.8902 19.6067 19.2941 19.2028C19.698 18.7989 19.925 18.251 19.925 17.6798V16.3664C19.925 15.8725 19.589 15.4417 19.1094 15.3221L14.8754 14.2633C14.4542 14.158 14.0119 14.316 13.7525 14.6625L12.824 15.9003C12.554 16.2602 12.0878 16.4191 11.6657 16.264C10.0985 15.6879 8.67534 14.7779 7.49467 13.5973C6.31401 12.4166 5.40409 10.9934 4.82794 9.42627C4.67286 9.00412 4.83177 8.53793 5.1917 8.26798L6.42945 7.33944C6.77693 7.08002 6.93392 6.6368 6.82863 6.21656L5.76989 1.98258C5.71163 1.74967 5.57721 1.54291 5.38799 1.39514C5.19877 1.24737 4.9656 1.16707 4.72551 1.16699H3.41215C2.84091 1.16699 2.29307 1.39391 1.88915 1.79784C1.48522 2.20176 1.2583 2.7496 1.2583 3.32084V5.47468Z" stroke="#D02049" stroke-width="1.4359" stroke-linecap="round" stroke-linejoin="round"/>
</svg>
