<svg width="16" height="16" viewBox="0 0 16 16" fill="none" xmlns="http://www.w3.org/2000/svg">
<path d="M8 0.5C7.5522 0.5 7.18925 0.862953 7.18925 1.31075V7.18925H1.31075C0.862953 7.18925 0.5 7.5522 0.5 8C0.5 8.4478 0.862953 8.81075 1.31075 8.81075H7.18925V14.6892C7.18925 15.137 7.5522 15.5 8 15.5C8.4478 15.5 8.81075 15.137 8.81075 14.6892V8.81075H14.6892C15.137 8.81075 15.5 8.4478 15.5 8C15.5 7.5522 15.137 7.18925 14.6892 7.18925H8.81075V1.31075C8.81075 0.862953 8.4478 0.5 8 0.5Z" fill="#2AD7A1"/>
</svg>
