<svg width="95" height="73" viewBox="0 0 95 73" fill="none" xmlns="http://www.w3.org/2000/svg">
<path d="M9.06075 65.9352C3.65325 60.1917 0.75 53.75 0.75 43.3078C0.75 24.9328 13.6492 8.4635 32.4075 0.320755L37.0957 7.55526C19.587 17.0263 16.164 29.3165 14.799 37.0655C17.6182 35.606 21.309 35.0968 24.9262 35.4328C34.3972 36.3095 41.8627 44.0848 41.8627 53.75C41.8627 58.6234 39.9268 63.2971 36.4808 66.7431C33.0349 70.1891 28.3611 72.125 23.4877 72.125C17.8545 72.125 12.468 69.5525 9.06075 65.9352ZM61.5607 65.9352C56.1532 60.1917 53.25 53.75 53.25 43.3078C53.25 24.9328 66.1492 8.4635 84.9075 0.320755L89.5957 7.55526C72.087 17.0263 68.664 29.3165 67.299 37.0655C70.1182 35.606 73.809 35.0968 77.4262 35.4328C86.8972 36.3095 94.3627 44.0848 94.3627 53.75C94.3627 58.6234 92.4268 63.2971 88.9808 66.7431C85.5349 70.1891 80.8611 72.125 75.9877 72.125C70.3545 72.125 64.968 69.5525 61.5607 65.9352Z" fill="#D02049"/>
</svg>
