<svg width="21" height="21" viewBox="0 0 21 21" fill="none" xmlns="http://www.w3.org/2000/svg">
<path fill-rule="evenodd" clip-rule="evenodd" d="M9.56587 20.1753C4.78723 20.1753 0.898926 16.2876 0.898926 11.5083C0.898926 9.43946 1.64013 7.43654 2.98554 5.86873C4.31648 4.31732 6.15456 3.28315 8.1608 2.95605C8.24472 2.94232 8.32902 2.97761 8.37804 3.04722C8.42706 3.11646 8.43221 3.20801 8.39101 3.28259C7.83062 4.29865 7.53423 5.45274 7.53423 6.61987C7.53423 10.4357 10.6384 13.5402 14.4546 13.5402C15.6215 13.5402 16.7758 13.2442 17.7919 12.6837C17.8663 12.6425 17.9578 12.6478 18.0276 12.6964C18.0969 12.7455 18.1322 12.8298 18.1186 12.9137C17.7915 14.9202 16.7571 16.7581 15.2061 18.0889C13.6379 19.4349 11.635 20.1757 9.56603 20.1757L9.56587 20.1753ZM7.79225 3.47861C4.02947 4.30028 1.34355 7.60837 1.34355 11.5083C1.34355 16.0421 5.03216 19.7305 9.56567 19.7305C13.4664 19.7305 16.7746 17.0445 17.5954 13.2818C16.6183 13.7422 15.5416 13.9841 14.4542 13.9841C10.3935 13.9841 7.08952 10.6804 7.08952 6.61936C7.09009 5.53216 7.33156 4.45551 7.792 3.47836L7.79225 3.47861Z" fill="#29384E"/>
<path fill-rule="evenodd" clip-rule="evenodd" d="M14.7503 10.6963C12.0951 10.6963 9.93506 8.53628 9.93506 5.88069C9.93506 3.22548 12.0951 1.06543 14.7503 1.06543C17.4055 1.06543 19.5656 3.22548 19.5656 5.88069C19.566 8.53589 17.4055 10.6963 14.7503 10.6963ZM14.7503 1.50937C12.3398 1.50937 10.3791 3.4701 10.3791 5.88025C10.3791 8.29073 12.3398 10.2515 14.7503 10.2515C17.1604 10.2515 19.1215 8.29073 19.1215 5.88025C19.1215 3.47015 17.1604 1.50937 14.7503 1.50937Z" fill="#29384E"/>
<path fill-rule="evenodd" clip-rule="evenodd" d="M16.282 2.38654C16.2538 2.38654 16.2252 2.38101 16.1973 2.36995C16.0836 2.32284 16.0297 2.19314 16.0764 2.07946L16.2953 1.54885C16.3425 1.43536 16.4718 1.38119 16.5858 1.42792C16.6991 1.47541 16.7531 1.60473 16.7064 1.71841L16.4874 2.24921C16.4519 2.33523 16.3694 2.38673 16.2818 2.38673L16.282 2.38654Z" fill="#29384E"/>
<path fill-rule="evenodd" clip-rule="evenodd" d="M12.9994 10.3485C12.971 10.3485 12.9422 10.343 12.9143 10.3316C12.8008 10.2848 12.7469 10.1551 12.7938 10.0413L13.0127 9.51065C13.0599 9.39678 13.1892 9.34299 13.303 9.3901C13.4167 9.43683 13.4707 9.56653 13.4236 9.6804L13.205 10.2112C13.1697 10.2972 13.0866 10.3487 12.9994 10.3487V10.3485Z" fill="#29384E"/>
<path fill-rule="evenodd" clip-rule="evenodd" d="M18.4608 4.55873C18.3736 4.55873 18.2908 4.50743 18.2555 4.42179C18.208 4.3083 18.262 4.1786 18.3751 4.1313L18.9052 3.91081C19.019 3.86332 19.1485 3.9173 19.196 4.0304C19.2431 4.14389 19.1892 4.27378 19.0761 4.32089L18.546 4.54176C18.5184 4.55358 18.4894 4.55873 18.4608 4.55873V4.55873Z" fill="#29384E"/>
<path fill-rule="evenodd" clip-rule="evenodd" d="M10.5093 7.86654C10.4221 7.86654 10.3393 7.81485 10.3037 7.72959C10.2566 7.6163 10.3105 7.48622 10.4236 7.43873L10.9539 7.21843C11.0671 7.17094 11.197 7.22492 11.2443 7.33802C11.2916 7.45112 11.2379 7.5814 11.1247 7.62851L10.5945 7.84899C10.5663 7.86082 10.5377 7.86635 10.5093 7.86635V7.86654Z" fill="#29384E"/>
<path fill-rule="evenodd" clip-rule="evenodd" d="M18.9963 7.85308C18.9681 7.85308 18.9395 7.84755 18.9116 7.83629L18.3806 7.61733C18.2671 7.57022 18.2132 7.44052 18.2601 7.32684C18.3072 7.21336 18.4365 7.15957 18.5504 7.2063L19.0814 7.42526C19.1949 7.47199 19.249 7.60207 19.2019 7.71556C19.1663 7.80139 19.0835 7.85308 18.9963 7.85308V7.85308Z" fill="#29384E"/>
<path fill-rule="evenodd" clip-rule="evenodd" d="M11.0339 4.57001C11.0057 4.57001 10.9771 4.56448 10.9492 4.55303L10.4182 4.33407C10.3047 4.28696 10.2508 4.15764 10.2977 4.04377C10.3448 3.92991 10.4745 3.87631 10.588 3.92323L11.119 4.14219C11.2325 4.18892 11.2864 4.319 11.2395 4.43249C11.2042 4.51851 11.1215 4.57 11.0339 4.57V4.57001Z" fill="#29384E"/>
<path fill-rule="evenodd" clip-rule="evenodd" d="M16.5145 10.3432C16.4273 10.3432 16.3445 10.2919 16.3092 10.2063L16.0885 9.67607C16.0411 9.56278 16.095 9.43269 16.2081 9.3852C16.3214 9.33809 16.4515 9.39207 16.499 9.50517L16.7197 10.0352C16.7668 10.1487 16.7132 10.2786 16.5997 10.3257C16.5721 10.3377 16.5429 10.343 16.5145 10.343V10.3432Z" fill="#29384E"/>
<path fill-rule="evenodd" clip-rule="evenodd" d="M13.206 2.39213C13.119 2.39213 13.0364 2.34044 13.0008 2.2548L12.7803 1.72512C12.7332 1.61125 12.7868 1.48136 12.9002 1.43425C13.0135 1.38676 13.1434 1.44074 13.1907 1.55384L13.4112 2.08426C13.4587 2.19736 13.4047 2.32744 13.2916 2.37474C13.2634 2.38657 13.2348 2.3921 13.206 2.3921V2.39213Z" fill="#29384E"/>
<path fill-rule="evenodd" clip-rule="evenodd" d="M17.389 3.46369C17.3322 3.46369 17.2751 3.44214 17.2322 3.39865C17.1452 3.31168 17.1452 3.17111 17.2322 3.08432L17.8411 2.4751C17.928 2.38851 18.0686 2.38851 18.1554 2.4751C18.2424 2.56207 18.2424 2.70284 18.1554 2.78981L17.5462 3.39864C17.5029 3.44175 17.446 3.46368 17.389 3.46368L17.389 3.46369Z" fill="#29384E"/>
<path fill-rule="evenodd" clip-rule="evenodd" d="M11.5027 9.35012C11.4454 9.35012 11.3886 9.32856 11.3455 9.28508C11.2585 9.19811 11.2585 9.05792 11.3455 8.97094L11.9543 8.3621C12.0413 8.27513 12.1819 8.27513 12.2687 8.3621C12.3554 8.44908 12.3556 8.58927 12.2687 8.67624L11.6598 9.28508C11.6165 9.32856 11.5595 9.35012 11.5027 9.35012H11.5027Z" fill="#29384E"/>
<path fill-rule="evenodd" clip-rule="evenodd" d="M19.3433 6.10202H18.482C18.3595 6.10202 18.2598 6.00226 18.2598 5.87943C18.2598 5.75698 18.3593 5.65723 18.482 5.65723H19.3433C19.4662 5.65723 19.5655 5.75698 19.5655 5.87943C19.5655 6.00226 19.4662 6.10202 19.3433 6.10202Z" fill="#29384E"/>
<path fill-rule="evenodd" clip-rule="evenodd" d="M11.0188 6.10202H10.1573C10.0344 6.10202 9.93506 6.00226 9.93506 5.87943C9.93506 5.75698 10.0344 5.65723 10.1573 5.65723H11.0188C11.1413 5.65723 11.241 5.75698 11.241 5.87943C11.2407 6.00226 11.1415 6.10202 11.0188 6.10202Z" fill="#29384E"/>
<path fill-rule="evenodd" clip-rule="evenodd" d="M14.7495 2.37042C14.6267 2.37042 14.5273 2.27067 14.5273 2.14822V1.28704C14.5273 1.16421 14.6267 1.06445 14.7495 1.06445C14.8724 1.06445 14.9718 1.16402 14.9718 1.28704V2.14822C14.9719 2.27067 14.8724 2.37042 14.7495 2.37042Z" fill="#29384E"/>
<path fill-rule="evenodd" clip-rule="evenodd" d="M14.7495 10.6964C14.6267 10.6964 14.5273 10.5967 14.5273 10.4742V9.61283C14.5273 9.49 14.6267 9.39062 14.7495 9.39062C14.8724 9.39062 14.9718 9.49 14.9718 9.61283V10.4742C14.9719 10.5967 14.8724 10.6964 14.7495 10.6964Z" fill="#29384E"/>
<path fill-rule="evenodd" clip-rule="evenodd" d="M12.1105 3.46368C12.0537 3.46368 11.9965 3.44213 11.9534 3.39864L11.3445 2.78981C11.2576 2.70284 11.2576 2.56207 11.3445 2.4751C11.4315 2.38851 11.5721 2.38851 11.6589 2.4751L12.2677 3.08432C12.3547 3.1713 12.3547 3.31187 12.2677 3.39865C12.2244 3.44176 12.1676 3.46369 12.1105 3.46369L12.1105 3.46368Z" fill="#29384E"/>
<path fill-rule="evenodd" clip-rule="evenodd" d="M17.9982 9.35012C17.941 9.35012 17.8844 9.32856 17.8411 9.28508L17.2322 8.67625C17.1452 8.58927 17.1452 8.44908 17.2322 8.36211C17.3192 8.27513 17.4598 8.27513 17.5464 8.36211L18.1556 8.97094C18.2426 9.05791 18.2426 9.1981 18.1556 9.28508C18.1121 9.32857 18.0553 9.35012 17.9984 9.35012H17.9982Z" fill="#29384E"/>
<path fill-rule="evenodd" clip-rule="evenodd" d="M14.7498 6.10268C14.6852 6.10268 14.6218 6.07426 14.5793 6.02257L13.1437 4.30007C13.0653 4.20604 13.078 4.06547 13.1721 3.98689C13.2665 3.90849 13.4067 3.92127 13.4851 4.01569L14.8278 5.62681L16.6984 5.09239C16.8161 5.05844 16.9393 5.12672 16.9732 5.24498C17.007 5.36304 16.9387 5.48625 16.8203 5.51982L14.8109 6.09414C14.7905 6.09967 14.7703 6.10253 14.7497 6.10253L14.7498 6.10268Z" fill="#D02049"/>
<path fill-rule="evenodd" clip-rule="evenodd" d="M4.67653 3.50854H3.5655C3.47567 3.50854 3.3946 3.45456 3.36027 3.37159C3.32594 3.28824 3.34501 3.19287 3.40834 3.12936L4.13997 2.39773L3.3433 2.39792C3.22085 2.39792 3.12109 2.29854 3.12109 2.17533C3.12109 2.05288 3.22047 1.95312 3.3433 1.95312H4.67654C4.76638 1.95312 4.84744 2.00729 4.88177 2.09026C4.9161 2.17323 4.89703 2.26898 4.83371 2.33249L4.10207 3.06413L4.67658 3.06394C4.79903 3.06394 4.89878 3.16369 4.89878 3.28614C4.89878 3.40936 4.79941 3.50835 4.67658 3.50835L4.67653 3.50854Z" fill="#D02049"/>
<path fill-rule="evenodd" clip-rule="evenodd" d="M2.89919 1.73121H1.78816C1.69832 1.73121 1.61726 1.67704 1.58293 1.59407C1.5486 1.5111 1.56767 1.41535 1.631 1.35222L2.36263 0.620193H1.56596C1.44351 0.620193 1.34375 0.520438 1.34375 0.397987C1.34375 0.275537 1.44312 0.175781 1.56596 0.175781H2.8992C2.98903 0.175781 3.0701 0.229951 3.10443 0.31311C3.13876 0.396078 3.11969 0.491829 3.05636 0.554959L2.32473 1.28699H2.89924C3.02169 1.28699 3.12144 1.38636 3.12144 1.50919C3.12182 1.63164 3.02207 1.7314 2.89924 1.7314L2.89919 1.73121Z" fill="#D02049"/>
<path fill-rule="evenodd" clip-rule="evenodd" d="M18.8994 19.7315C17.7964 19.7315 16.8994 18.8345 16.8994 17.7315C16.8994 16.6285 17.7964 15.7314 18.8994 15.7314C20.0021 15.7314 20.8991 16.6285 20.8991 17.7315C20.8991 18.8345 20.0021 19.7315 18.8994 19.7315ZM18.8994 16.1761C18.0417 16.1761 17.3435 16.8738 17.3435 17.7317C17.3435 18.5894 18.0415 19.2871 18.8994 19.2871C19.757 19.2871 20.4551 18.5894 20.4551 17.7317C20.4551 16.874 19.757 16.1761 18.8994 16.1761Z" fill="#29384E"/>
<path fill-rule="evenodd" clip-rule="evenodd" d="M8.23212 2.39784C7.61929 2.39784 7.12109 1.89945 7.12109 1.28701C7.12109 0.674167 7.61948 0.175781 8.23212 0.175781C8.84496 0.175781 9.34335 0.674167 9.34335 1.28701C9.34354 1.89945 8.84496 2.39784 8.23212 2.39784ZM8.23212 0.620017C7.86439 0.620017 7.56533 0.919468 7.56533 1.28701C7.56533 1.65455 7.86478 1.95341 8.23212 1.95341C8.59986 1.95341 8.89892 1.65472 8.89892 1.28701C8.89892 0.919292 8.59985 0.620017 8.23212 0.620017Z" fill="#29384E"/>
</svg>
