<svg width="20" height="20" viewBox="0 0 20 20" fill="none" xmlns="http://www.w3.org/2000/svg">
<g id="icon-park-outline:fitness">
<path id="Vector" d="M17.9166 10.8333C16.8945 10.4133 14.9999 8.75 11.6666 11.25C10.7903 10.76 9.16659 9.58333 6.66659 11.6667C6.3745 10.4767 6.31617 7.76833 6.66659 5.41667C6.81242 5.06667 7.41409 4.81875 9.16659 6.66667L11.2499 4.58333C11.1041 3.67333 9.99992 2.5 6.66659 2.5C5.41659 2.5 4.27575 3.56875 3.74992 5.41667C3.09284 7.30625 2.08325 11.6667 2.08325 14.1667C2.08325 14.9367 3.12492 16.6667 7.08325 16.6667C7.91659 16.6667 10.3541 16.7604 13.3333 15.4167L15.8333 17.5" stroke="#29384E" stroke-width="1.66667" stroke-linecap="round" stroke-linejoin="round"/>
</g>
</svg>
