<svg width="21" height="21" viewBox="0 0 21 21" fill="none" xmlns="http://www.w3.org/2000/svg">
<path fill-rule="evenodd" clip-rule="evenodd" d="M10.9004 0.5C5.37039 0.5 0.900391 4.97 0.900391 10.5C0.900391 16.03 5.37039 20.5 10.9004 20.5C16.4304 20.5 20.9004 16.03 20.9004 10.5C20.9004 4.97 16.4304 0.5 10.9004 0.5ZM10.9004 18.5C6.49039 18.5 2.90039 14.91 2.90039 10.5C2.90039 6.09 6.49039 2.5 10.9004 2.5C15.3104 2.5 18.9004 6.09 18.9004 10.5C18.9004 14.91 15.3104 18.5 10.9004 18.5ZM10.9004 9.09L14.4904 5.5L15.9004 6.91L12.3104 10.5L15.9004 14.09L14.4904 15.5L10.9004 11.91L7.31039 15.5L5.90039 14.09L9.49039 10.5L5.90039 6.91L7.31039 5.5L10.9004 9.09Z" fill="#D02049"/>
</svg>
