<svg width="26" height="26" viewBox="0 0 26 26" fill="none" xmlns="http://www.w3.org/2000/svg">
<path d="M17.554 15.5977C16.736 15.6028 15.9378 15.8501 15.2602 16.3085C14.5826 16.7668 14.056 17.4156 13.7467 18.1729C13.4375 18.9302 13.3595 19.7622 13.5226 20.5638C13.6857 21.3655 14.0826 22.1008 14.6633 22.6771C15.2439 23.2533 15.9822 23.6447 16.785 23.8018C17.5878 23.9589 18.4192 23.8746 19.1742 23.5597C19.9292 23.2447 20.574 22.7132 21.0272 22.0322C21.4804 21.3511 21.7217 20.5511 21.7207 19.7331V19.7331C21.72 19.1878 21.6115 18.648 21.4014 18.1449C21.1914 17.6417 20.8838 17.185 20.4966 16.8012C20.1093 16.4173 19.65 16.1138 19.145 15.9081C18.64 15.7025 18.0993 15.5987 17.554 15.6029V15.5977Z" stroke="#D02049" stroke-linecap="round" stroke-linejoin="round"/>
<path d="M14.8145 22.8323H9.51764C9.21746 22.8329 8.92761 22.7227 8.70368 22.5228C8.47974 22.3229 8.33745 22.0473 8.3041 21.749L6.22598 3.19692C6.21622 3.11007 6.22526 3.02213 6.25249 2.93908C6.27972 2.85603 6.32449 2.7798 6.38377 2.71558C6.44305 2.65136 6.51546 2.60064 6.59607 2.56686C6.67668 2.53309 6.76362 2.51705 6.85098 2.51984H19.351C19.4383 2.51705 19.5253 2.53309 19.6059 2.56686C19.6865 2.60064 19.7589 2.65136 19.8182 2.71558C19.8775 2.7798 19.9222 2.85603 19.9495 2.93908C19.9767 3.02213 19.9857 3.11007 19.976 3.19692L18.5854 15.598" stroke="#29384E" stroke-linecap="round" stroke-linejoin="round"/>
<path d="M6.96045 9.03027C10.825 9.03027 10.825 10.5407 14.6636 10.5407C17.075 10.5407 17.9813 9.94173 19.2625 9.49902M17.5542 16.8896V19.7334L19.2313 20.8271" stroke="#29384E" stroke-linecap="round" stroke-linejoin="round"/>
</svg>
